<svg width="237" height="98" viewBox="0 0 237 98" fill="none" xmlns="http://www.w3.org/2000/svg">
<g filter="url(#filter0_d_0_2289)">
<path d="M16.5063 37.7573C18.6177 22.9779 31.2753 12 46.2048 12H208.942C215.027 12 219.702 17.3899 218.841 23.4142L214.437 54.2427C212.326 69.0221 199.668 80 184.739 80H22.0018C15.9163 80 11.2417 74.6101 12.1023 68.5858L16.5063 37.7573Z" fill="url(#paint0_linear_0_2289)"/>
<path d="M46.2051 14H208.941C213.81 14 217.55 18.3124 216.861 23.1318L212.457 53.96C210.486 67.754 198.672 78 184.738 78H22.002C17.1336 78 13.3935 73.6876 14.082 68.8682L18.4863 38.04C20.457 24.246 32.2709 14 46.2051 14Z" stroke="url(#paint1_linear_0_2289)" stroke-opacity="0.6" stroke-width="4"/>
</g>
<mask id="mask0_0_2289" style="mask-type:alpha" maskUnits="userSpaceOnUse" x="16" y="15" width="199" height="61">
<path d="M21.44 35.8698C23.2775 24.1517 33.3995 15.5335 45.2606 15.588L208.862 16.3404C212.518 16.3573 215.309 19.6114 214.769 23.227L210.888 49.2027C208.702 63.8343 196.176 74.688 181.382 74.7691L21.0749 75.6484C17.9936 75.6653 15.6305 72.918 16.1078 69.8739L21.44 35.8698Z" fill="url(#paint2_linear_0_2289)"/>
</mask>
<g mask="url(#mask0_0_2289)">
<path fill-rule="evenodd" clip-rule="evenodd" d="M285.063 -51.6807C283.701 -57.9628 276.78 -60.1532 272.723 -55.5859L231.759 -9.4693L174.059 -14.316C168.345 -14.796 164.36 -8.04342 166.955 -2.2774L193.158 55.9422L171.244 116.377C169.074 122.363 173.533 128.727 179.194 127.723L236.352 117.588L280.508 159.786C284.881 163.965 291.621 161.145 292.525 154.759L301.647 90.2755L350.851 55.92C355.725 52.5174 355.432 44.4111 350.329 41.4678L298.809 11.7498L285.063 -51.6807ZM266.036 -28.0811L241.754 -0.744011L251.706 29.5979L266.036 -28.0811ZM240.996 72.7023L198.789 109.931L233.265 103.818L240.996 72.7023ZM245.332 107.637L253.352 75.3588L272.433 133.536L245.332 107.637ZM263.376 35.0109L278.103 -24.2623L286.524 14.5938L263.376 35.0109ZM271.979 45.3735L294.747 25.291L324.942 42.7081L271.979 45.3735ZM187.836 12.8857L232.754 47.3475L203.998 48.7947L187.836 12.8857ZM283.728 127.231L265.857 72.7449L288.932 90.448L283.728 127.231ZM325.734 56.8261L295.194 78.1498L270.991 59.5811L325.734 56.8261ZM230.136 4.57723L240.505 36.1921L195.507 1.66842L230.136 4.57723ZM204.16 62.9443L233.374 61.4741L191.206 98.6685L204.16 62.9443Z" fill="url(#paint3_linear_0_2289)"/>
<path d="M-85.2512 9.28799C-85.1379 9.28799 -85.1379 9.28799 -85.1379 9.17063C-85.1379 9.05328 -85.1379 9.05328 -85.2512 9.05328C-85.3645 9.05328 -85.3645 9.05328 -85.3645 9.17063C-85.3645 9.28799 -85.2512 9.28799 -85.2512 9.28799Z" fill="#FFD159"/>
<path d="M-71.9767 9.75572C-71.6364 9.75572 -71.4095 9.52164 -71.4095 9.17052C-71.4095 8.8194 -71.6364 8.58532 -71.9767 8.58532C-72.3171 8.58532 -72.544 8.8194 -72.544 9.17052C-72.544 9.52164 -72.3171 9.75572 -71.9767 9.75572Z" fill="#FFD159"/>
<path d="M-58.703 10.1066C-58.2492 10.1066 -57.9088 9.75553 -57.9088 9.28736C-57.9088 8.8192 -58.2492 8.46808 -58.703 8.46808C-59.1568 8.46808 -59.4972 8.8192 -59.4972 9.28736C-59.6106 9.63848 -59.1568 10.1066 -58.703 10.1066Z" fill="#FFD159"/>
<path d="M-45.5422 10.2237C-44.9749 10.2237 -44.5211 9.75555 -44.5211 9.17035C-44.5211 8.58515 -44.9749 8.11699 -45.5422 8.11699C-46.1094 8.11699 -46.5633 8.58515 -46.5633 9.17035C-46.5633 9.75555 -46.1094 10.2237 -45.5422 10.2237Z" fill="#FFD159"/>
<path d="M-32.2684 10.3408C-31.5876 10.3408 -31.1338 9.87264 -31.1338 9.1704C-31.1338 8.46816 -31.5876 8 -32.2684 8C-32.9491 8 -33.4029 8.46816 -33.4029 9.1704C-33.4029 9.87264 -32.9491 10.3408 -32.2684 10.3408Z" fill="#FFD159"/>
<path d="M-18.9943 10.3409C-18.427 10.3409 -17.8597 9.87273 -17.8597 9.17049C-17.8597 8.58529 -18.3136 8.00009 -18.9943 8.00009C-19.5615 8.00009 -20.1288 8.46825 -20.1288 9.17049C-20.1288 9.75569 -19.675 10.3409 -18.9943 10.3409Z" fill="#FFD159"/>
<path d="M-5.8338 10.1067C-5.26654 10.1067 -4.92618 9.63858 -4.92618 9.17042C-4.92618 8.58522 -5.37999 8.2341 -5.8338 8.2341C-6.40106 8.2341 -6.74142 8.70226 -6.74142 9.17042C-6.74142 9.75563 -6.28761 10.1067 -5.8338 10.1067Z" fill="#FFD159"/>
<path d="M7.44019 9.87263C7.78055 9.87263 8.12091 9.52151 8.12091 9.17038C8.12091 8.81926 7.78055 8.46814 7.44019 8.46814C7.09982 8.46814 6.75948 8.81926 6.75948 9.17038C6.75948 9.52151 7.09982 9.87263 7.44019 9.87263Z" fill="#FFD159"/>
<path d="M20.7143 9.40451C20.8277 9.40451 20.9412 9.28747 20.9412 9.17043C20.9412 9.05339 20.8277 8.93635 20.7143 8.93635C20.6008 8.93635 20.4874 9.05339 20.4874 9.17043C20.3739 9.28747 20.4874 9.40451 20.7143 9.40451Z" fill="#FFD159"/>
<path d="M-98.4114 23.4494C-98.071 23.4494 -97.8441 23.2153 -97.8441 22.8642C-97.8441 22.5131 -98.071 22.279 -98.4114 22.279C-98.7517 22.279 -98.9786 22.5131 -98.9786 22.8642C-98.9786 23.2153 -98.7517 23.4494 -98.4114 23.4494Z" fill="#FFD159"/>
<path d="M-85.2506 24.0347C-84.5698 24.0347 -84.116 23.5666 -84.116 22.8643C-84.116 22.1621 -84.6833 21.6939 -85.2506 21.6939C-85.9313 21.6939 -86.3851 22.2791 -86.3851 22.8643C-86.3851 23.4495 -85.8178 24.0347 -85.2506 24.0347Z" fill="#FFD159"/>
<path d="M-71.977 24.5027C-71.0693 24.5027 -70.2752 23.8005 -70.2752 22.7471C-70.2752 21.8108 -71.0693 20.9915 -71.977 20.9915C-72.8846 20.9915 -73.6787 21.8108 -73.6787 22.7471C-73.6787 23.8005 -72.8846 24.5027 -71.977 24.5027Z" fill="#FFD159"/>
<path d="M-58.7028 24.8538C-57.5683 24.8538 -56.7741 23.9174 -56.7741 22.8641C-56.7741 21.6937 -57.6817 20.8744 -58.7028 20.8744C-59.8374 20.8744 -60.6315 21.8107 -60.6315 22.8641C-60.745 23.9174 -59.8374 24.8538 -58.7028 24.8538Z" fill="#FFD159"/>
<path d="M-45.5424 25.0878C-44.2944 25.0878 -43.3868 24.0345 -43.3868 22.8641C-43.3868 21.5766 -44.4079 20.6403 -45.5424 20.6403C-46.7904 20.6403 -47.698 21.6937 -47.698 22.8641C-47.698 24.0345 -46.6769 25.0878 -45.5424 25.0878Z" fill="#FFD159"/>
<path d="M-32.2682 25.2049C-31.0203 25.2049 -29.9992 24.1516 -29.9992 22.8641C-29.9992 21.5767 -31.0203 20.5233 -32.2682 20.5233C-33.5162 20.5233 -34.5373 21.5767 -34.5373 22.8641C-34.5373 24.1516 -33.5162 25.2049 -32.2682 25.2049Z" fill="#FFD159"/>
<path d="M-18.9948 25.0878C-17.7468 25.0878 -16.7257 24.0344 -16.7257 22.747C-16.7257 21.4596 -17.7468 20.4062 -18.9948 20.4062C-20.2428 20.4062 -21.2638 21.4596 -21.2638 22.747C-21.2638 24.1515 -20.2428 25.0878 -18.9948 25.0878Z" fill="#FFD159"/>
<path d="M-5.83403 24.9709C-4.69949 24.9709 -3.79185 24.0345 -3.79185 22.8641C-3.79185 21.6937 -4.69949 20.7574 -5.83403 20.7574C-6.96855 20.7574 -7.87617 21.6937 -7.87617 22.8641C-7.87617 24.0345 -6.96855 24.9709 -5.83403 24.9709Z" fill="#FFD159"/>
<path d="M7.44028 24.6197C8.46135 24.6197 9.25551 23.8004 9.25551 22.747C9.25551 21.6937 8.46135 20.8744 7.44028 20.8744C6.41919 20.8744 5.73848 21.6937 5.73848 22.747C5.62502 23.8004 6.41919 24.6197 7.44028 24.6197Z" fill="#FFD159"/>
<path d="M20.7145 24.1516C21.3952 24.1516 22.0759 23.5664 22.0759 22.7471C22.0759 22.0449 21.5086 21.3426 20.7145 21.3426C20.0338 21.3426 19.353 21.9278 19.353 22.7471C19.353 23.5664 19.9203 24.1516 20.7145 24.1516Z" fill="#FFD159"/>
<path d="M33.8746 23.6835C34.3284 23.6835 34.6687 23.3324 34.6687 22.8642C34.6687 22.396 34.3284 22.0449 33.8746 22.0449C33.4208 22.0449 33.0804 22.396 33.0804 22.8642C33.0804 23.3324 33.4208 23.6835 33.8746 23.6835Z" fill="#FFD159"/>
<path d="M47.1485 22.9817C47.2619 22.9817 47.2619 22.8643 47.2619 22.8643C47.2619 22.747 47.1485 22.747 47.1485 22.747C47.0352 22.747 47.0352 22.8643 47.0352 22.8643C47.0352 22.8643 47.0352 22.9817 47.1485 22.9817Z" fill="#FFD159"/>
<path d="M-124.959 36.5574C-124.846 36.5574 -124.846 36.5574 -124.959 36.5574C-124.846 36.4413 -124.846 36.4413 -124.959 36.5574C-124.959 36.4413 -124.959 36.4413 -124.959 36.5574Z" fill="#FFD159"/>
<path d="M-111.685 37.2601C-111.232 37.2601 -110.891 36.9089 -110.891 36.4408C-110.891 35.9726 -111.232 35.6215 -111.685 35.6215C-112.139 35.6215 -112.48 35.9726 -112.48 36.4408C-112.48 36.9089 -112.139 37.2601 -111.685 37.2601Z" fill="#FFD159"/>
<path d="M-98.4113 38.0792C-97.6172 38.0792 -96.823 37.377 -96.823 36.4406C-96.823 35.6214 -97.5037 34.8021 -98.4113 34.8021C-99.319 34.8021 -99.9997 35.5043 -99.9997 36.4406C-99.9997 37.377 -99.319 38.0792 -98.4113 38.0792Z" fill="#FFD159"/>
<path d="M-85.251 38.6645C-84.1165 38.6645 -83.0954 37.6112 -83.0954 36.4408C-83.0954 35.2704 -84.1165 34.217 -85.251 34.217C-86.499 34.217 -87.4066 35.2704 -87.4066 36.4408C-87.4066 37.7282 -86.3855 38.6645 -85.251 38.6645Z" fill="#FFD159"/>
<path d="M-71.9764 39.25C-70.5016 39.25 -69.2536 37.9625 -69.2536 36.441C-69.2536 34.9195 -70.5016 33.6321 -71.9764 33.6321C-73.4513 33.6321 -74.6993 34.9195 -74.6993 36.441C-74.6993 37.9625 -73.4513 39.25 -71.9764 39.25Z" fill="#FFD159"/>
<path d="M-58.7028 39.6008C-57.001 39.6008 -55.6395 38.1963 -55.6395 36.4407C-55.6395 34.6851 -57.001 33.2806 -58.7028 33.2806C-60.4045 33.2806 -61.766 34.6851 -61.766 36.4407C-61.8794 38.1963 -60.4045 39.6008 -58.7028 39.6008Z" fill="#FFD159"/>
<path d="M-45.5421 39.9522C-43.7269 39.9522 -42.252 38.4307 -42.252 36.558C-42.252 34.6854 -43.7269 33.1639 -45.5421 33.1639C-47.3574 33.1639 -48.8323 34.6854 -48.8323 36.558C-48.8323 38.4307 -47.3574 39.9522 -45.5421 39.9522Z" fill="#FFD159"/>
<path d="M-32.2685 40.0689C-30.3398 40.0689 -28.8649 38.4304 -28.8649 36.5577C-28.8649 34.568 -30.4532 33.0465 -32.2685 33.0465C-34.1972 33.0465 -35.672 34.6851 -35.672 36.5577C-35.672 38.4304 -34.1972 40.0689 -32.2685 40.0689Z" fill="#FFD159"/>
<path d="M-18.9945 39.9519C-17.1793 39.9519 -15.5909 38.4304 -15.5909 36.4407C-15.5909 34.5681 -17.0658 32.9295 -18.9945 32.9295C-20.8098 32.9295 -22.3981 34.451 -22.3981 36.4407C-22.3981 38.4304 -20.9232 39.9519 -18.9945 39.9519Z" fill="#FFD159"/>
<path d="M-5.83377 39.8349C-4.01852 39.8349 -2.65709 38.3133 -2.65709 36.5577C-2.65709 34.8021 -4.13199 33.2806 -5.83377 33.2806C-7.64902 33.2806 -9.01045 34.8021 -9.01045 36.5577C-9.01045 38.3133 -7.53557 39.8349 -5.83377 39.8349Z" fill="#FFD159"/>
<path d="M7.44 39.3671C9.02835 39.3671 10.2763 38.0796 10.2763 36.4411C10.2763 34.8025 9.02835 33.5151 7.44 33.5151C5.85167 33.5151 4.60368 34.8025 4.60368 36.4411C4.60368 38.0796 5.85167 39.3671 7.44 39.3671Z" fill="#FFD159"/>
<path d="M20.714 38.8988C21.962 38.8988 23.0965 37.8455 23.0965 36.441C23.0965 35.1536 22.0755 33.9832 20.714 33.9832C19.466 33.9832 18.3315 35.0365 18.3315 36.441C18.3315 37.8455 19.3526 38.8988 20.714 38.8988Z" fill="#FFD159"/>
<path d="M33.8746 38.3135C34.8957 38.3135 35.6898 37.4942 35.6898 36.4408C35.6898 35.3875 34.8957 34.6852 33.8746 34.6852C32.8535 34.6852 32.0594 35.5045 32.0594 36.4408C32.1728 37.4942 32.967 38.3135 33.8746 38.3135Z" fill="#FFD159"/>
<path d="M47.1489 37.6114C47.7162 37.6114 48.17 37.1432 48.17 36.558C48.17 35.9728 47.7162 35.5046 47.1489 35.5046C46.5817 35.5046 46.1279 35.9728 46.1279 36.558C46.1279 37.1432 46.5817 37.6114 47.1489 37.6114Z" fill="#FFD159"/>
<path d="M60.4225 36.7918C60.536 36.7918 60.7629 36.6748 60.7629 36.4407C60.7629 36.3237 60.6494 36.0896 60.4225 36.0896C60.3091 36.0896 60.0822 36.2066 60.0822 36.4407C60.0822 36.6748 60.1956 36.7918 60.4225 36.7918Z" fill="#FFD159"/>
<path d="M-124.959 50.9538C-124.506 50.9538 -124.165 50.6026 -124.165 50.1345C-124.165 49.6663 -124.506 49.3152 -124.959 49.3152C-125.413 49.3152 -125.753 49.6663 -125.753 50.1345C-125.753 50.6026 -125.413 50.9538 -124.959 50.9538Z" fill="#FFD159"/>
<path d="M-111.685 51.8901C-110.777 51.8901 -109.983 51.0708 -109.983 50.1345C-109.983 49.1982 -110.777 48.3789 -111.685 48.3789C-112.592 48.3789 -113.386 49.1982 -113.386 50.1345C-113.386 51.0708 -112.592 51.8901 -111.685 51.8901Z" fill="#FFD159"/>
<path d="M-98.4111 52.7095C-97.0496 52.7095 -95.9151 51.5391 -95.9151 50.1346C-95.9151 48.7301 -97.0496 47.5597 -98.4111 47.5597C-99.7725 47.5597 -100.907 48.7301 -100.907 50.1346C-100.907 51.5391 -99.7725 52.7095 -98.4111 52.7095Z" fill="#FFD159"/>
<path d="M-85.251 53.4117C-83.5492 53.4117 -82.0743 52.0072 -82.0743 50.1346C-82.0743 48.379 -83.4357 46.8574 -85.251 46.8574C-86.9527 46.8574 -88.4276 48.2619 -88.4276 50.1346C-88.4276 51.8902 -86.9527 53.4117 -85.251 53.4117Z" fill="#FFD159"/>
<path d="M-71.9773 53.9968C-69.9352 53.9968 -68.2334 52.2412 -68.2334 50.1344C-68.2334 48.0277 -69.9352 46.2721 -71.9773 46.2721C-74.0195 46.2721 -75.7213 48.0277 -75.7213 50.1344C-75.7213 52.2412 -74.0195 53.9968 -71.9773 53.9968Z" fill="#FFD159"/>
<path d="M-58.703 54.465C-56.434 54.465 -54.5053 52.5924 -54.5053 50.1345C-54.5053 47.7937 -56.3205 45.804 -58.703 45.804C-60.9721 45.804 -62.9008 47.6767 -62.9008 50.1345C-62.9008 52.4753 -61.0855 54.465 -58.703 54.465Z" fill="#FFD159"/>
<path d="M-45.5424 54.6992C-43.0464 54.6992 -41.1177 52.5925 -41.1177 50.1346C-41.1177 47.5597 -43.1599 45.5701 -45.5424 45.5701C-48.0383 45.5701 -49.967 47.6768 -49.967 50.1346C-49.967 52.7095 -48.0383 54.6992 -45.5424 54.6992Z" fill="#FFD159"/>
<path d="M-32.2681 54.8162C-29.7722 54.8162 -27.73 52.7094 -27.73 50.1346C-27.73 47.5597 -29.7722 45.4529 -32.2681 45.4529C-34.7641 45.4529 -36.8062 47.5597 -36.8062 50.1346C-36.9197 52.7094 -34.7641 54.8162 -32.2681 54.8162Z" fill="#FFD159"/>
<path d="M-18.9947 54.8162C-16.4988 54.8162 -14.4566 52.7094 -14.4566 50.1346C-14.4566 47.5597 -16.4988 45.4529 -18.9947 45.4529C-21.4907 45.4529 -23.5328 47.5597 -23.5328 50.1346C-23.5328 52.7094 -21.4907 54.8162 -18.9947 54.8162Z" fill="#FFD159"/>
<path d="M-5.83353 54.5822C-3.45102 54.5822 -1.52231 52.5925 -1.52231 50.1347C-1.52231 47.6769 -3.45102 45.6872 -5.83353 45.6872C-8.21603 45.6872 -10.1447 47.6769 -10.1447 50.1347C-10.1447 52.5925 -8.21603 54.5822 -5.83353 54.5822Z" fill="#FFD159"/>
<path d="M7.44003 54.1141C9.59564 54.1141 11.2974 52.3585 11.2974 50.1347C11.2974 47.911 9.59564 46.1554 7.44003 46.1554C5.28444 46.1554 3.58266 47.911 3.58266 50.1347C3.58266 52.3585 5.28444 54.1141 7.44003 54.1141Z" fill="#FFD159"/>
<path d="M20.7139 53.5287C22.5291 53.5287 24.004 52.0071 24.004 50.1345C24.004 48.2618 22.5291 46.7403 20.7139 46.7403C18.8987 46.7403 17.4238 48.2618 17.4238 50.1345C17.3103 52.0071 18.7852 53.5287 20.7139 53.5287Z" fill="#FFD159"/>
<path d="M33.8749 52.9437C35.3498 52.9437 36.5978 51.6562 36.5978 50.1347C36.5978 48.6132 35.3498 47.3258 33.8749 47.3258C32.4 47.3258 31.152 48.6132 31.152 50.1347C31.2655 51.6562 32.4 52.9437 33.8749 52.9437Z" fill="#FFD159"/>
<path d="M47.1488 52.1242C48.2833 52.1242 49.0775 51.1879 49.0775 50.1345C49.0775 49.0811 48.1698 48.1448 47.1488 48.1448C46.1277 48.1448 45.2201 49.0811 45.2201 50.1345C45.2201 51.1879 46.0142 52.1242 47.1488 52.1242Z" fill="#FFD159"/>
<path d="M60.4222 51.3049C60.9894 51.3049 61.5567 50.8368 61.5567 50.1345C61.5567 49.5493 61.1029 48.9641 60.4222 48.9641C59.8549 48.9641 59.2876 49.4323 59.2876 50.1345C59.2876 50.7197 59.7414 51.3049 60.4222 51.3049Z" fill="#FFD159"/>
<path d="M73.583 50.3686C73.6965 50.3686 73.8099 50.2515 73.8099 50.1345C73.8099 50.0174 73.6965 49.9004 73.583 49.9004C73.4696 49.9004 73.3561 50.0174 73.3561 50.1345C73.3561 50.2515 73.4696 50.3686 73.583 50.3686Z" fill="#FFD159"/>
<path d="M-138.12 64.4135C-137.779 64.4135 -137.552 64.1795 -137.552 63.8283C-137.552 63.4772 -137.779 63.2431 -138.12 63.2431C-138.46 63.2431 -138.687 63.4772 -138.687 63.8283C-138.687 64.1795 -138.46 64.4135 -138.12 64.4135Z" fill="#FFD159"/>
<path d="M-124.959 65.3497C-124.165 65.3497 -123.371 64.6475 -123.371 63.7112C-123.371 62.8919 -124.052 62.0726 -124.959 62.0726C-125.867 62.0726 -126.548 62.7749 -126.548 63.7112C-126.434 64.6475 -125.753 65.3497 -124.959 65.3497Z" fill="#FFD159"/>
<path d="M-111.685 66.2861C-110.324 66.2861 -109.19 65.1157 -109.19 63.7112C-109.19 62.3067 -110.324 61.1363 -111.685 61.1363C-113.047 61.1363 -114.181 62.3067 -114.181 63.7112C-114.181 65.2327 -113.047 66.2861 -111.685 66.2861Z" fill="#FFD159"/>
<path d="M-98.411 67.2225C-96.5957 67.2225 -95.1208 65.701 -95.1208 63.8283C-95.1208 61.9557 -96.5957 60.4341 -98.411 60.4341C-100.226 60.4341 -101.701 61.9557 -101.701 63.8283C-101.701 65.701 -100.226 67.2225 -98.411 67.2225Z" fill="#FFD159"/>
<path d="M-85.2507 67.9248C-82.9816 67.9248 -81.1664 66.0521 -81.1664 63.7113C-81.1664 61.3705 -82.9816 59.4979 -85.2507 59.4979C-87.5197 59.4979 -89.335 61.3705 -89.335 63.7113C-89.2215 66.0521 -87.4063 67.9248 -85.2507 67.9248Z" fill="#FFD159"/>
<path d="M-71.9766 68.627C-69.3672 68.627 -67.325 66.4032 -67.325 63.8283C-67.325 61.1364 -69.4806 59.0297 -71.9766 59.0297C-74.586 59.0297 -76.6282 61.2534 -76.6282 63.8283C-76.6282 66.5202 -74.586 68.627 -71.9766 68.627Z" fill="#FFD159"/>
<path d="M-58.7028 69.2122C-55.7531 69.2122 -53.484 66.7543 -53.484 63.8283C-53.484 60.7853 -55.8665 58.4445 -58.7028 58.4445C-61.6526 58.4445 -63.9217 60.9023 -63.9217 63.8283C-64.0351 66.7543 -61.6526 69.2122 -58.7028 69.2122Z" fill="#FFD159"/>
<path d="M-45.5428 69.5632C-42.4796 69.5632 -39.8702 66.9883 -39.8702 63.8282C-39.8702 60.6681 -42.3662 58.0932 -45.5428 58.0932C-48.6061 58.0932 -51.2155 60.6681 -51.2155 63.8282C-51.102 66.9883 -48.6061 69.5632 -45.5428 69.5632Z" fill="#FFD159"/>
<path d="M-32.2684 69.6803C-29.0918 69.6803 -26.5958 66.9884 -26.5958 63.8283C-26.5958 60.5511 -29.2052 57.9763 -32.2684 57.9763C-35.4451 57.9763 -37.9411 60.6682 -37.9411 63.8283C-37.9411 67.1054 -35.4451 69.6803 -32.2684 69.6803Z" fill="#FFD159"/>
<path d="M-18.9942 69.6803C-15.8175 69.6803 -13.3216 67.1054 -13.3216 63.8283C-13.3216 60.5511 -15.8175 57.9763 -18.9942 57.9763C-22.1709 57.9763 -24.6668 60.5511 -24.6668 63.8283C-24.7803 66.9884 -22.1709 69.6803 -18.9942 69.6803Z" fill="#FFD159"/>
<path d="M-5.8342 69.329C-2.88443 69.329 -0.388474 66.8711 -0.388474 63.711C-0.388474 60.668 -2.77098 58.0931 -5.8342 58.0931C-8.78397 58.0931 -11.2799 60.551 -11.2799 63.711C-11.1665 66.8711 -8.78397 69.329 -5.8342 69.329Z" fill="#FFD159"/>
<path d="M7.44008 68.861C10.1629 68.861 12.3185 66.6372 12.3185 63.8283C12.3185 61.0193 10.1629 58.7956 7.44008 58.7956C4.71721 58.7956 2.56161 61.0193 2.56161 63.8283C2.56161 66.6372 4.71721 68.861 7.44008 68.861Z" fill="#FFD159"/>
<path d="M20.7139 68.2757C23.0964 68.2757 25.0251 66.286 25.0251 63.8282C25.0251 61.3703 23.0964 59.3806 20.7139 59.3806C18.3314 59.3806 16.4027 61.3703 16.4027 63.8282C16.4027 66.286 18.3314 68.2757 20.7139 68.2757Z" fill="#FFD159"/>
<path d="M33.8745 67.4565C35.8032 67.4565 37.3915 65.818 37.3915 63.8283C37.3915 61.8386 35.8032 60.2 33.8745 60.2C31.9458 60.2 30.3575 61.8386 30.3575 63.8283C30.3575 65.818 31.9458 67.4565 33.8745 67.4565Z" fill="#FFD159"/>
<path d="M47.1484 66.637C48.6232 66.637 49.8712 65.3496 49.8712 63.8281C49.8712 62.3065 48.6232 61.0191 47.1484 61.0191C45.6735 61.0191 44.4255 62.3065 44.4255 63.8281C44.4255 65.3496 45.6735 66.637 47.1484 66.637Z" fill="#FFD159"/>
<path d="M60.4227 65.7011C61.4438 65.7011 62.238 64.8818 62.238 63.7114C62.238 62.658 61.4438 61.8388 60.4227 61.8388C59.4016 61.8388 58.494 62.658 58.494 63.7114C58.494 64.8818 59.2882 65.7011 60.4227 65.7011Z" fill="#FFD159"/>
<path d="M73.5834 64.7646C74.0372 64.7646 74.491 64.2964 74.491 63.8282C74.491 63.3601 74.0372 62.8919 73.5834 62.8919C73.1296 62.8919 72.6758 63.3601 72.6758 63.8282C72.6758 64.2964 73.1296 64.7646 73.5834 64.7646Z" fill="#FFD159"/>
<path d="M-151.394 77.5226C-151.281 77.5226 -151.281 77.5226 -151.394 77.5226C-151.281 77.4053 -151.281 77.2879 -151.394 77.2879C-151.507 77.2879 -151.507 77.2879 -151.507 77.4053C-151.507 77.5226 -151.394 77.5226 -151.394 77.5226Z" fill="#FFD159"/>
<path d="M-138.12 78.5755C-137.439 78.5755 -136.985 78.1073 -136.985 77.4051C-136.985 76.8198 -137.439 76.2346 -138.12 76.2346C-138.801 76.2346 -139.254 76.8198 -139.254 77.4051C-139.254 78.1073 -138.801 78.5755 -138.12 78.5755Z" fill="#FFD159"/>
<path d="M-124.959 79.6288C-123.825 79.6288 -122.804 78.5754 -122.804 77.405C-122.804 76.1176 -123.825 75.1813 -124.959 75.1813C-126.207 75.1813 -127.115 76.2346 -127.115 77.405C-127.115 78.6925 -126.094 79.6288 -124.959 79.6288Z" fill="#FFD159"/>
<path d="M-111.685 80.6822C-109.983 80.6822 -108.508 79.1607 -108.508 77.4051C-108.508 75.6495 -109.983 74.128 -111.685 74.128C-113.387 74.128 -114.862 75.5325 -114.862 77.4051C-114.862 79.2777 -113.387 80.6822 -111.685 80.6822Z" fill="#FFD159"/>
<path d="M-98.4114 81.6182C-96.1423 81.6182 -94.3271 79.7456 -94.3271 77.4048C-94.3271 75.064 -96.1423 73.1913 -98.4114 73.1913C-100.68 73.1913 -102.496 75.064 -102.496 77.4048C-102.496 79.7456 -100.68 81.6182 -98.4114 81.6182Z" fill="#FFD159"/>
<path d="M-85.2506 82.5548C-82.5277 82.5548 -80.3721 80.3311 -80.3721 77.5221C-80.3721 74.7131 -82.5277 72.4894 -85.2506 72.4894C-87.9734 72.4894 -90.129 74.7131 -90.129 77.5221C-90.129 80.214 -87.9734 82.5548 -85.2506 82.5548Z" fill="#FFD159"/>
<path d="M-71.977 83.2568C-68.8003 83.2568 -66.3044 80.6819 -66.3044 77.4047C-66.3044 74.1276 -68.8003 71.5527 -71.977 71.5527C-75.1537 71.5527 -77.6497 74.1276 -77.6497 77.4047C-77.6497 80.6819 -75.1537 83.2568 -71.977 83.2568Z" fill="#FFD159"/>
<path d="M-58.7027 83.9594C-55.1857 83.9594 -52.3494 81.0334 -52.3494 77.4052C-52.3494 73.7769 -55.1857 70.8509 -58.7027 70.8509C-62.2198 70.8509 -65.0561 73.7769 -65.0561 77.4052C-65.0561 81.0334 -62.2198 83.9594 -58.7027 83.9594Z" fill="#FFD159"/>
<path d="M-45.5423 84.4273C-41.7984 84.4273 -38.8486 81.3843 -38.8486 77.5219C-38.8486 73.6596 -41.7984 70.6166 -45.5423 70.6166C-49.2863 70.6166 -52.236 73.7766 -52.236 77.5219C-52.236 81.2672 -49.1728 84.4273 -45.5423 84.4273Z" fill="#FFD159"/>
<path d="M-32.2684 84.5444C-28.411 84.5444 -25.3478 81.3843 -25.3478 77.4049C-25.3478 73.4255 -28.411 70.2655 -32.2684 70.2655C-36.1258 70.2655 -39.189 73.4255 -39.189 77.4049C-39.189 81.3843 -36.1258 84.5444 -32.2684 84.5444Z" fill="#FFD159"/>
<path d="M-18.9942 84.4273C-15.2503 84.4273 -12.1871 81.2672 -12.1871 77.4049C-12.1871 73.5425 -15.2503 70.3825 -18.9942 70.3825C-22.7382 70.3825 -25.8014 73.5425 -25.8014 77.4049C-25.8014 81.2672 -22.7382 84.4273 -18.9942 84.4273Z" fill="#FFD159"/>
<path d="M-5.83369 84.0763C-2.31667 84.0763 0.633102 81.0332 0.633102 77.405C0.633102 73.7767 -2.31667 70.7337 -5.83369 70.7337C-9.35074 70.7337 -12.3005 73.7767 -12.3005 77.405C-12.3005 81.1502 -9.35074 84.0763 -5.83369 84.0763Z" fill="#FFD159"/>
<path d="M7.44011 83.4912C10.7302 83.4912 13.3397 80.7992 13.3397 77.4051C13.3397 74.0109 10.7302 71.319 7.44011 71.319C4.14998 71.319 1.54057 74.0109 1.54057 77.4051C1.54057 80.7992 4.14998 83.4912 7.44011 83.4912Z" fill="#FFD159"/>
<path d="M20.7142 82.7887C23.5505 82.7887 25.933 80.4479 25.933 77.4049C25.933 74.4789 23.664 72.021 20.7142 72.021C17.8779 72.021 15.4954 74.3619 15.4954 77.4049C15.4954 80.4479 17.7644 82.7887 20.7142 82.7887Z" fill="#FFD159"/>
<path d="M33.8746 81.9694C36.2571 81.9694 38.1858 79.9797 38.1858 77.5219C38.1858 75.064 36.2571 73.0743 33.8746 73.0743C31.4921 73.0743 29.5634 75.064 29.5634 77.5219C29.5634 79.8627 31.4921 81.9694 33.8746 81.9694Z" fill="#FFD159"/>
<path d="M47.1488 81.0333C49.0775 81.0333 50.5524 79.3947 50.5524 77.5221C50.5524 75.5324 48.9641 74.0109 47.1488 74.0109C45.2201 74.0109 43.7452 75.6494 43.7452 77.5221C43.6318 79.3947 45.2201 81.0333 47.1488 81.0333Z" fill="#FFD159"/>
<path d="M60.4224 79.9796C61.7838 79.9796 62.9183 78.8092 62.9183 77.4047C62.9183 76.0002 61.7838 74.8298 60.4224 74.8298C59.0609 74.8298 57.9264 76.0002 57.9264 77.4047C57.9264 78.8092 58.9475 79.9796 60.4224 79.9796Z" fill="#FFD159"/>
<path d="M73.583 79.0433C74.3772 79.0433 75.0579 78.3411 75.0579 77.5218C75.0579 76.7025 74.3772 76.0003 73.583 76.0003C72.7888 76.0003 72.1082 76.7025 72.1082 77.5218C72.1082 78.3411 72.7888 79.0433 73.583 79.0433Z" fill="#FFD159"/>
<path d="M86.8569 77.8729C87.0838 77.8729 87.3107 77.6388 87.3107 77.4047C87.3107 77.1707 87.0838 76.9366 86.8569 76.9366C86.63 76.9366 86.4031 77.1707 86.4031 77.4047C86.4031 77.6388 86.63 77.8729 86.8569 77.8729Z" fill="#FFD159"/>
<path d="M-151.393 91.6839C-151.053 91.6839 -150.826 91.4499 -150.826 91.0987C-150.826 90.7476 -151.053 90.5135 -151.393 90.5135C-151.734 90.5135 -151.961 90.7476 -151.961 91.0987C-151.961 91.4499 -151.734 91.6839 -151.393 91.6839Z" fill="#FFD159"/>
<path d="M-138.12 92.8541C-137.213 92.8541 -136.418 92.0348 -136.418 91.0985C-136.418 90.1622 -137.099 89.3429 -138.12 89.3429C-139.028 89.3429 -139.822 90.1622 -139.822 91.0985C-139.822 92.0348 -139.028 92.8541 -138.12 92.8541Z" fill="#FFD159"/>
<path d="M-124.96 93.9074C-123.485 93.9074 -122.237 92.62 -122.237 91.0985C-122.237 89.577 -123.485 88.2895 -124.96 88.2895C-126.435 88.2895 -127.569 89.577 -127.569 91.0985C-127.569 92.62 -126.435 93.9074 -124.96 93.9074Z" fill="#FFD159"/>
<path d="M-111.685 94.961C-109.643 94.961 -107.942 93.2054 -107.942 91.0987C-107.942 88.992 -109.643 87.2364 -111.685 87.2364C-113.728 87.2364 -115.429 88.992 -115.429 91.0987C-115.429 93.2054 -113.728 94.961 -111.685 94.961Z" fill="#FFD159"/>
<path d="M-98.4112 95.8972C-95.8017 95.8972 -93.7596 93.7905 -93.7596 91.0986C-93.7596 88.4067 -95.9152 86.2999 -98.4112 86.2999C-101.021 86.2999 -103.063 88.5237 -103.063 91.0986C-103.176 93.7905 -101.021 95.8972 -98.4112 95.8972Z" fill="#FFD159"/>
<path d="M-85.2505 96.9508C-82.0738 96.9508 -79.5779 94.3759 -79.5779 91.0988C-79.5779 87.8217 -82.0738 85.2468 -85.2505 85.2468C-88.4272 85.2468 -90.9231 87.8217 -90.9231 91.0988C-90.9231 94.3759 -88.3137 96.9508 -85.2505 96.9508Z" fill="#FFD159"/>
<path d="M-71.9772 97.8868C-68.3467 97.8868 -65.3969 94.8438 -65.3969 91.0985C-65.3969 87.3532 -68.3467 84.3101 -71.9772 84.3101C-75.6077 84.3101 -78.5574 87.3532 -78.5574 91.0985C-78.5574 94.8438 -75.6077 97.8868 -71.9772 97.8868Z" fill="#FFD159"/>
<path d="M-58.7029 98.5892C-54.6186 98.5892 -51.4419 95.1951 -51.4419 91.0986C-51.4419 87.0022 -54.732 83.6081 -58.7029 83.6081C-62.7872 83.6081 -65.9639 87.0022 -65.9639 91.0986C-66.0773 95.3121 -62.7872 98.5892 -58.7029 98.5892Z" fill="#FFD159"/>
<path d="M-45.5421 99.1746C-41.2309 99.1746 -37.7139 95.5463 -37.7139 91.0988C-37.7139 86.6512 -41.2309 83.023 -45.5421 83.023C-49.8533 83.023 -53.3703 86.6512 -53.3703 91.0988C-53.3703 95.5463 -49.8533 99.1746 -45.5421 99.1746Z" fill="#FFD159"/>
<path d="M-32.2687 99.4085C-27.844 99.4085 -24.2135 95.6632 -24.2135 91.0986C-24.2135 86.5341 -27.844 82.7888 -32.2687 82.7888C-36.6933 82.7888 -40.3238 86.5341 -40.3238 91.0986C-40.3238 95.6632 -36.6933 99.4085 -32.2687 99.4085Z" fill="#FFD159"/>
<path d="M-18.9944 99.2914C-14.5698 99.2914 -11.0528 95.6631 -11.0528 91.0986C-11.0528 86.534 -14.5698 82.9058 -18.9944 82.9058C-23.4191 82.9058 -26.9361 86.534 -26.9361 91.0986C-26.9361 95.6631 -23.4191 99.2914 -18.9944 99.2914Z" fill="#FFD159"/>
<path d="M-5.83412 98.823C-1.74983 98.823 1.65375 95.3118 1.65375 91.0984C1.65375 86.8849 -1.74983 83.3737 -5.83412 83.3737C-9.91843 83.3737 -13.322 86.8849 -13.322 91.0984C-13.322 95.3118 -9.91843 98.823 -5.83412 98.823Z" fill="#FFD159"/>
<path d="M7.44041 98.1211C11.1844 98.1211 14.2476 94.961 14.2476 91.0987C14.2476 87.2364 11.1844 84.0763 7.44041 84.0763C3.69647 84.0763 0.633255 87.2364 0.633255 91.0987C0.633255 94.961 3.69647 98.1211 7.44041 98.1211Z" fill="#FFD159"/>
<path d="M20.7143 97.3017C24.0044 97.3017 26.7273 94.4928 26.7273 91.0986C26.7273 87.7044 24.0044 84.8955 20.7143 84.8955C17.4241 84.8955 14.7013 87.7044 14.7013 91.0986C14.7013 94.4928 17.3107 97.3017 20.7143 97.3017Z" fill="#FFD159"/>
<path d="M33.8745 96.2484C36.7108 96.2484 38.8664 93.9076 38.8664 91.0986C38.8664 88.2897 36.5974 85.9489 33.8745 85.9489C31.1516 85.9489 28.8826 88.2897 28.8826 91.0986C28.8826 93.9076 31.1516 96.2484 33.8745 96.2484Z" fill="#FFD159"/>
<path d="M47.1486 95.312C49.4176 95.312 51.2329 93.4394 51.2329 91.0986C51.2329 88.7578 49.4176 86.8851 47.1486 86.8851C44.8795 86.8851 43.0643 88.7578 43.0643 91.0986C43.0643 93.4394 44.8795 95.312 47.1486 95.312Z" fill="#FFD159"/>
<path d="M60.4225 94.2588C62.1243 94.2588 63.4857 92.8543 63.4857 91.0987C63.4857 89.3431 62.1243 87.9387 60.4225 87.9387C58.7207 87.9387 57.3593 89.3431 57.3593 91.0987C57.3593 92.8543 58.7207 94.2588 60.4225 94.2588Z" fill="#FFD159"/>
<path d="M73.5829 93.0881C74.7175 93.0881 75.5116 92.1518 75.5116 90.9814C75.5116 89.811 74.604 88.9917 73.5829 88.9917C72.4484 88.9917 71.6543 89.928 71.6543 90.9814C71.6543 92.2688 72.5619 93.0881 73.5829 93.0881Z" fill="#FFD159"/>
<path d="M86.8573 92.0351C87.3111 92.0351 87.7649 91.5669 87.7649 91.0988C87.7649 90.6306 87.3111 90.1624 86.8573 90.1624C86.4035 90.1624 85.9497 90.6306 85.9497 91.0988C85.9497 91.5669 86.2901 92.0351 86.8573 92.0351Z" fill="#FFD159"/>
<path d="M-151.393 105.611C-150.94 105.611 -150.599 105.26 -150.599 104.792C-150.599 104.324 -150.94 103.973 -151.393 103.973C-151.847 103.973 -152.188 104.324 -152.188 104.792C-152.188 105.26 -151.847 105.611 -151.393 105.611Z" fill="#FFD159"/>
<path d="M-138.12 106.782C-136.985 106.782 -136.191 105.846 -136.191 104.792C-136.191 103.622 -137.098 102.803 -138.12 102.803C-139.254 102.803 -140.162 103.739 -140.162 104.792C-140.162 105.846 -139.254 106.782 -138.12 106.782Z" fill="#FFD159"/>
<path d="M-124.959 107.953C-123.257 107.953 -121.896 106.548 -121.896 104.792C-121.896 103.037 -123.257 101.632 -124.959 101.632C-126.661 101.632 -128.022 103.037 -128.022 104.792C-128.022 106.548 -126.661 107.953 -124.959 107.953Z" fill="#FFD159"/>
<path d="M-111.685 109.006C-109.416 109.006 -107.487 107.133 -107.487 104.675C-107.487 102.335 -109.303 100.345 -111.685 100.345C-113.954 100.345 -115.883 102.217 -115.883 104.675C-115.883 107.133 -113.954 109.006 -111.685 109.006Z" fill="#FFD159"/>
<path d="M-98.4114 110.176C-95.4617 110.176 -93.1926 107.718 -93.1926 104.792C-93.1926 101.749 -95.5751 99.4086 -98.4114 99.4086C-101.361 99.4086 -103.63 101.866 -103.63 104.792C-103.744 107.718 -101.361 110.176 -98.4114 110.176Z" fill="#FFD159"/>
<path d="M-85.2511 111.229C-81.7341 111.229 -78.8977 108.303 -78.8977 104.675C-78.8977 101.047 -81.7341 98.1209 -85.2511 98.1209C-88.7681 98.1209 -91.6044 101.047 -91.6044 104.675C-91.491 108.303 -88.6547 111.229 -85.2511 111.229Z" fill="#FFD159"/>
<path d="M-71.9769 112.283C-67.8925 112.283 -64.7159 108.889 -64.7159 104.792C-64.7159 100.579 -68.006 97.3018 -71.9769 97.3018C-76.0611 97.3018 -79.2378 100.696 -79.2378 104.792C-79.2378 108.889 -76.0611 112.283 -71.9769 112.283Z" fill="#FFD159"/>
<path d="M-58.7031 113.219C-54.165 113.219 -50.5345 109.474 -50.5345 104.792C-50.5345 100.111 -54.165 96.3655 -58.7031 96.3655C-63.2412 96.3655 -66.8717 100.111 -66.8717 104.792C-66.8717 109.474 -63.2412 113.219 -58.7031 113.219Z" fill="#FFD159"/>
<path d="M-45.5424 113.219C-41.0043 113.219 -37.3738 109.474 -37.3738 104.792C-37.3738 100.111 -41.0043 96.3654 -45.5424 96.3654C-50.0805 96.3654 -53.711 100.111 -53.711 104.792C-53.711 109.474 -50.0805 113.219 -45.5424 113.219Z" fill="#FFD159"/>
<path d="M-32.2684 113.219C-27.7303 113.219 -24.0999 109.474 -24.0999 104.792C-24.0999 100.111 -27.7303 96.3655 -32.2684 96.3655C-36.8065 96.3655 -40.437 100.111 -40.437 104.792C-40.437 109.474 -36.8065 113.219 -32.2684 113.219Z" fill="#FFD159"/>
<path d="M-18.9943 113.219C-14.4562 113.219 -10.8257 109.474 -10.8257 104.792C-10.8257 100.111 -14.4562 96.3654 -18.9943 96.3654C-23.5324 96.3654 -27.1629 100.111 -27.1629 104.792C-27.2764 109.474 -23.5324 113.219 -18.9943 113.219Z" fill="#FFD159"/>
<path d="M-5.83379 113.219C-1.29568 113.219 2.33481 109.474 2.33481 104.792C2.33481 100.111 -1.29568 96.3655 -5.83379 96.3655C-10.3719 96.3655 -14.0024 100.111 -14.0024 104.792C-14.0024 109.474 -10.3719 113.219 -5.83379 113.219Z" fill="#FFD159"/>
<path d="M7.44002 112.634C11.6378 112.634 15.0414 109.123 15.0414 104.792C15.0414 100.462 11.6378 96.9507 7.44002 96.9507C3.24226 96.9507 -0.161301 100.462 -0.161301 104.792C-0.161301 109.123 3.24226 112.634 7.44002 112.634Z" fill="#FFD159"/>
<path d="M20.7141 111.581C24.3446 111.581 27.4079 108.538 27.4079 104.675C27.4079 100.93 24.4581 97.77 20.7141 97.77C17.0836 97.77 14.0204 100.813 14.0204 104.675C14.0204 108.538 16.9702 111.581 20.7141 111.581Z" fill="#FFD159"/>
<path d="M33.8748 110.527C36.938 110.527 39.5474 107.952 39.5474 104.675C39.5474 101.515 37.0515 98.8232 33.8748 98.8232C30.8116 98.8232 28.2022 101.398 28.2022 104.675C28.3156 107.952 30.8116 110.527 33.8748 110.527Z" fill="#FFD159"/>
<path d="M47.149 109.357C49.6449 109.357 51.6871 107.25 51.6871 104.675C51.6871 102.1 49.6449 99.9938 47.149 99.9938C44.653 99.9938 42.6109 102.1 42.6109 104.675C42.6109 107.367 44.653 109.357 47.149 109.357Z" fill="#FFD159"/>
<path d="M60.4228 108.304C62.3515 108.304 63.8264 106.665 63.8264 104.792C63.8264 102.803 62.238 101.281 60.4228 101.281C58.4941 101.281 57.0192 102.92 57.0192 104.792C56.9057 106.665 58.4941 108.304 60.4228 108.304Z" fill="#FFD159"/>
<path d="M73.5829 107.133C74.8308 107.133 75.9654 106.08 75.9654 104.675C75.9654 103.388 74.9443 102.217 73.5829 102.217C72.3349 102.217 71.2003 103.271 71.2003 104.675C71.2003 106.08 72.3349 107.133 73.5829 107.133Z" fill="#FFD159"/>
<path d="M86.857 106.08C87.5378 106.08 88.105 105.494 88.105 104.792C88.105 104.09 87.5378 103.505 86.857 103.505C86.1763 103.505 85.609 104.09 85.609 104.792C85.609 105.494 86.1763 106.08 86.857 106.08Z" fill="#FFD159"/>
<path d="M100.131 104.91C100.244 104.675 100.244 104.675 100.131 104.675C100.018 104.675 100.018 104.675 100.018 104.793C100.018 104.793 100.018 104.91 100.131 104.91Z" fill="#FFD159"/>
<path d="M-151.394 119.539C-150.826 119.539 -150.372 119.071 -150.372 118.486C-150.372 117.901 -150.826 117.433 -151.394 117.433C-151.961 117.433 -152.415 117.901 -152.415 118.486C-152.415 118.954 -151.961 119.539 -151.394 119.539Z" fill="#FFD159"/>
<path d="M-138.12 120.71C-136.872 120.71 -135.964 119.657 -135.964 118.486C-135.964 117.199 -136.985 116.262 -138.12 116.262C-139.368 116.262 -140.275 117.316 -140.275 118.486C-140.389 119.657 -139.368 120.71 -138.12 120.71Z" fill="#FFD159"/>
<path d="M-124.959 121.88C-123.144 121.88 -121.669 120.359 -121.669 118.486C-121.669 116.613 -123.144 115.092 -124.959 115.092C-126.775 115.092 -128.249 116.613 -128.249 118.486C-128.249 120.359 -126.775 121.88 -124.959 121.88Z" fill="#FFD159"/>
<path d="M-111.685 123.051C-109.189 123.051 -107.26 120.944 -107.26 118.486C-107.26 115.911 -109.303 113.921 -111.685 113.921C-114.181 113.921 -116.11 116.028 -116.11 118.486C-116.11 120.944 -114.181 123.051 -111.685 123.051Z" fill="#FFD159"/>
<path d="M-98.4114 124.221C-95.3482 124.221 -92.7388 121.646 -92.7388 118.369C-92.7388 115.209 -95.2348 112.634 -98.4114 112.634C-101.475 112.634 -103.971 115.209 -103.971 118.369C-104.084 121.646 -101.588 124.221 -98.4114 124.221Z" fill="#FFD159"/>
<path d="M-85.2509 125.274C-81.507 125.274 -78.5572 122.114 -78.5572 118.369C-78.5572 114.507 -81.507 111.464 -85.2509 111.464C-88.9949 111.464 -91.9446 114.624 -91.9446 118.369C-91.9446 122.231 -88.8814 125.274 -85.2509 125.274Z" fill="#FFD159"/>
<path d="M-71.9767 126.445C-67.6655 126.445 -64.1485 122.817 -64.1485 118.369C-64.1485 113.922 -67.6655 110.293 -71.9767 110.293C-76.2879 110.293 -79.805 113.922 -79.805 118.369C-79.805 122.817 -76.2879 126.445 -71.9767 126.445Z" fill="#FFD159"/>
<path d="M-58.7031 126.796C-54.165 126.796 -50.5345 123.051 -50.5345 118.369C-50.5345 113.687 -54.165 109.942 -58.7031 109.942C-63.2412 109.942 -66.8717 113.687 -66.8717 118.369C-66.8717 123.051 -63.2412 126.796 -58.7031 126.796Z" fill="#FFD159"/>
<path d="M-45.5419 126.796C-41.0038 126.796 -37.3733 123.051 -37.3733 118.369C-37.3733 113.688 -41.0038 109.942 -45.5419 109.942C-50.08 109.942 -53.7105 113.688 -53.7105 118.369C-53.7105 123.051 -50.08 126.796 -45.5419 126.796Z" fill="#FFD159"/>
<path d="M-32.268 126.796C-27.7299 126.796 -24.0994 123.051 -24.0994 118.369C-24.0994 113.688 -27.7299 109.942 -32.268 109.942C-36.8061 109.942 -40.4366 113.688 -40.4366 118.369C-40.4366 123.051 -36.8061 126.796 -32.268 126.796Z" fill="#FFD159"/>
<path d="M-18.9943 126.796C-14.4562 126.796 -10.8257 123.051 -10.8257 118.369C-10.8257 113.688 -14.4562 109.942 -18.9943 109.942C-23.5324 109.942 -27.1629 113.688 -27.1629 118.369C-27.2764 123.051 -23.5324 126.796 -18.9943 126.796Z" fill="#FFD159"/>
<path d="M-5.83379 126.796C-1.29568 126.796 2.33481 123.051 2.33481 118.369C2.33481 113.687 -1.29568 109.942 -5.83379 109.942C-10.3719 109.942 -14.0024 113.687 -14.0024 118.369C-14.0024 123.051 -10.3719 126.796 -5.83379 126.796Z" fill="#FFD159"/>
<path d="M7.44014 126.796C11.9783 126.796 15.6087 123.051 15.6087 118.369C15.6087 113.687 11.9783 109.942 7.44014 109.942C2.90202 109.942 -0.728439 113.687 -0.728439 118.369C-0.728439 123.051 2.90202 126.796 7.44014 126.796Z" fill="#FFD159"/>
<path d="M20.714 125.742C24.5714 125.742 27.748 122.465 27.748 118.486C27.748 114.507 24.5714 111.229 20.714 111.229C16.8566 111.229 13.6799 114.507 13.6799 118.486C13.5665 122.465 16.7431 125.742 20.714 125.742Z" fill="#FFD159"/>
<path d="M33.875 124.572C37.1651 124.572 39.888 121.763 39.888 118.369C39.888 114.975 37.1651 112.166 33.875 112.166C30.5848 112.166 27.862 114.975 27.862 118.369C27.9754 121.763 30.5848 124.572 33.875 124.572Z" fill="#FFD159"/>
<path d="M47.1487 123.402C49.8715 123.402 52.0271 121.178 52.0271 118.369C52.0271 115.56 49.8715 113.336 47.1487 113.336C44.4258 113.336 42.2702 115.56 42.2702 118.369C42.2702 121.178 44.4258 123.402 47.1487 123.402Z" fill="#FFD159"/>
<path d="M60.4228 122.231C62.465 122.231 64.1668 120.476 64.1668 118.369C64.1668 116.262 62.465 114.507 60.4228 114.507C58.3807 114.507 56.6789 116.262 56.6789 118.369C56.6789 120.476 58.3807 122.231 60.4228 122.231Z" fill="#FFD159"/>
<path d="M73.5833 121.061C75.0582 121.061 76.1927 119.891 76.1927 118.369C76.1927 116.848 75.0582 115.677 73.5833 115.677C72.1084 115.677 70.9739 116.848 70.9739 118.369C70.9739 119.891 72.2218 121.061 73.5833 121.061Z" fill="#FFD159"/>
<path d="M86.857 119.89C87.6511 119.89 88.3319 119.188 88.3319 118.369C88.3319 117.55 87.6511 116.847 86.857 116.847C86.0628 116.847 85.3821 117.55 85.3821 118.369C85.3821 119.188 86.0628 119.89 86.857 119.89Z" fill="#FFD159"/>
<path d="M100.131 118.72C100.245 118.72 100.472 118.603 100.472 118.369C100.472 118.252 100.358 118.018 100.131 118.018C100.018 118.018 99.7908 118.135 99.7908 118.369C99.7908 118.603 99.9042 118.72 100.131 118.72Z" fill="#FFD159"/>
<path d="M-151.394 133.233C-150.713 133.233 -150.259 132.765 -150.259 132.063C-150.259 131.36 -150.713 130.892 -151.394 130.892C-152.075 130.892 -152.528 131.478 -152.528 132.063C-152.528 132.648 -151.961 133.233 -151.394 133.233Z" fill="#FFD159"/>
<path d="M-138.12 134.404C-136.872 134.404 -135.851 133.35 -135.851 132.063C-135.851 130.775 -136.872 129.722 -138.12 129.722C-139.368 129.722 -140.389 130.775 -140.389 132.063C-140.502 133.35 -139.481 134.404 -138.12 134.404Z" fill="#FFD159"/>
<path d="M-124.96 135.574C-123.031 135.574 -121.556 133.935 -121.556 132.063C-121.556 130.073 -123.144 128.551 -124.96 128.551C-126.888 128.551 -128.363 130.19 -128.363 132.063C-128.363 134.052 -126.775 135.574 -124.96 135.574Z" fill="#FFD159"/>
<path d="M-111.685 136.745C-109.189 136.745 -107.147 134.638 -107.147 132.063C-107.147 129.488 -109.189 127.381 -111.685 127.381C-114.181 127.381 -116.223 129.488 -116.223 132.063C-116.223 134.638 -114.181 136.745 -111.685 136.745Z" fill="#FFD159"/>
<path d="M-98.4114 137.915C-95.2347 137.915 -92.7387 135.223 -92.7387 132.063C-92.7387 128.786 -95.3482 126.094 -98.4114 126.094C-101.588 126.094 -104.084 128.786 -104.084 132.063C-104.197 135.34 -101.588 137.915 -98.4114 137.915Z" fill="#FFD159"/>
<path d="M-85.2505 139.202C-81.3931 139.202 -78.3299 136.042 -78.3299 132.063C-78.3299 128.083 -81.3931 124.923 -85.2505 124.923C-89.1079 124.923 -92.1711 128.083 -92.1711 132.063C-92.0577 136.042 -88.9944 139.202 -85.2505 139.202Z" fill="#FFD159"/>
<path d="M-71.9768 140.373C-67.5521 140.373 -63.9216 136.627 -63.9216 132.063C-63.9216 127.498 -67.5521 123.753 -71.9768 123.753C-76.4014 123.753 -80.0319 127.498 -80.0319 132.063C-80.0319 136.627 -76.4014 140.373 -71.9768 140.373Z" fill="#FFD159"/>
<path d="M-58.7031 140.49C-54.165 140.49 -50.5345 136.744 -50.5345 132.063C-50.5345 127.381 -54.165 123.636 -58.7031 123.636C-63.2412 123.636 -66.8717 127.381 -66.8717 132.063C-66.8717 136.744 -63.2412 140.49 -58.7031 140.49Z" fill="#FFD159"/>
<path d="M-45.5424 140.49C-41.0043 140.49 -37.3738 136.744 -37.3738 132.063C-37.3738 127.381 -41.0043 123.636 -45.5424 123.636C-50.0805 123.636 -53.711 127.381 -53.711 132.063C-53.711 136.744 -50.0805 140.49 -45.5424 140.49Z" fill="#FFD159"/>
<path d="M-32.2684 140.49C-27.7303 140.49 -24.0999 136.744 -24.0999 132.063C-24.0999 127.381 -27.7303 123.636 -32.2684 123.636C-36.8065 123.636 -40.437 127.381 -40.437 132.063C-40.437 136.744 -36.8065 140.49 -32.2684 140.49Z" fill="#FFD159"/>
<path d="M-18.9943 140.489C-14.4562 140.489 -10.8257 136.744 -10.8257 132.062C-10.8257 127.381 -14.4562 123.636 -18.9943 123.636C-23.5324 123.636 -27.1629 127.381 -27.1629 132.062C-27.2764 136.744 -23.5324 140.489 -18.9943 140.489Z" fill="#FFD159"/>
<path d="M-5.83379 140.49C-1.29568 140.49 2.33481 136.744 2.33481 132.063C2.33481 127.381 -1.29568 123.636 -5.83379 123.636C-10.3719 123.636 -14.0024 127.381 -14.0024 132.063C-14.0024 136.744 -10.3719 140.49 -5.83379 140.49Z" fill="#FFD159"/>
<path d="M7.44014 140.49C11.9783 140.49 15.6087 136.744 15.6087 132.063C15.6087 127.381 11.9783 123.636 7.44014 123.636C2.90202 123.636 -0.728439 127.381 -0.728439 132.063C-0.728439 136.744 2.90202 140.49 7.44014 140.49Z" fill="#FFD159"/>
<path d="M20.7138 139.553C24.7981 139.553 27.9748 136.159 27.9748 132.063C27.9748 127.849 24.6847 124.572 20.7138 124.572C16.743 124.572 13.4529 127.966 13.4529 132.063C13.3394 136.276 16.6295 139.553 20.7138 139.553Z" fill="#FFD159"/>
<path d="M33.8743 138.383C37.2778 138.383 40.0007 135.574 40.0007 132.063C40.0007 128.552 37.2778 125.743 33.8743 125.743C30.4707 125.743 27.7478 128.552 27.7478 132.063C27.7478 135.574 30.4707 138.383 33.8743 138.383Z" fill="#FFD159"/>
<path d="M47.1489 137.212C49.8717 137.212 52.1408 134.872 52.1408 132.063C52.1408 129.254 49.8717 126.913 47.1489 126.913C44.426 126.913 42.157 129.254 42.157 132.063C42.157 134.872 44.426 137.212 47.1489 137.212Z" fill="#FFD159"/>
<path d="M60.4226 136.042C62.5782 136.042 64.28 134.287 64.28 132.063C64.28 129.839 62.5782 128.084 60.4226 128.084C58.267 128.084 56.5652 129.839 56.5652 132.063C56.5652 134.287 58.267 136.042 60.4226 136.042Z" fill="#FFD159"/>
<path d="M73.5835 134.872C75.0584 134.872 76.3064 133.584 76.3064 132.063C76.3064 130.541 75.0584 129.254 73.5835 129.254C72.1086 129.254 70.8606 130.541 70.8606 132.063C70.9741 133.584 72.1086 134.872 73.5835 134.872Z" fill="#FFD159"/>
<path d="M86.8572 133.701C87.7648 133.701 88.4455 132.999 88.4455 132.063C88.4455 131.126 87.7648 130.424 86.8572 130.424C85.9496 130.424 85.2688 131.126 85.2688 132.063C85.2688 132.999 85.9496 133.701 86.8572 133.701Z" fill="#FFD159"/>
<path d="M100.131 132.531C100.358 132.531 100.472 132.297 100.472 132.063C100.472 131.829 100.245 131.595 100.131 131.595C99.9044 131.595 99.6775 131.829 99.6775 132.063C99.6775 132.297 99.9044 132.531 100.131 132.531Z" fill="#FFD159"/>
<path d="M-151.394 146.81C-150.827 146.81 -150.259 146.342 -150.259 145.64C-150.259 145.054 -150.713 144.469 -151.394 144.469C-151.961 144.469 -152.528 144.937 -152.528 145.64C-152.528 146.342 -151.961 146.81 -151.394 146.81Z" fill="#FFD159"/>
<path d="M-138.12 147.98C-136.872 147.98 -135.851 146.927 -135.851 145.639C-135.851 144.352 -136.872 143.298 -138.12 143.298C-139.368 143.298 -140.389 144.352 -140.389 145.639C-140.389 147.044 -139.368 147.98 -138.12 147.98Z" fill="#FFD159"/>
<path d="M-124.959 149.151C-123.144 149.151 -121.556 147.629 -121.556 145.639C-121.556 143.767 -123.03 142.128 -124.959 142.128C-126.774 142.128 -128.363 143.65 -128.363 145.639C-128.249 147.629 -126.774 149.151 -124.959 149.151Z" fill="#FFD159"/>
<path d="M-111.685 150.321C-109.189 150.321 -107.147 148.214 -107.147 145.639C-107.147 143.064 -109.189 140.958 -111.685 140.958C-114.181 140.958 -116.223 143.064 -116.223 145.639C-116.223 148.331 -114.181 150.321 -111.685 150.321Z" fill="#FFD159"/>
<path d="M-98.4112 151.608C-95.2345 151.608 -92.7386 149.033 -92.7386 145.756C-92.7386 142.479 -95.2345 139.904 -98.4112 139.904C-101.588 139.904 -104.084 142.479 -104.084 145.756C-104.084 148.916 -101.588 151.608 -98.4112 151.608Z" fill="#FFD159"/>
<path d="M-85.2507 152.662C-81.5068 152.662 -78.4435 149.502 -78.4435 145.639C-78.4435 141.777 -81.5068 138.617 -85.2507 138.617C-88.9947 138.617 -92.0579 141.777 -92.0579 145.639C-92.0579 149.619 -88.9947 152.662 -85.2507 152.662Z" fill="#FFD159"/>
<path d="M-71.977 153.832C-67.5523 153.832 -64.0353 150.204 -64.0353 145.639C-64.0353 141.075 -67.5523 137.447 -71.977 137.447C-76.4016 137.447 -79.9187 141.075 -79.9187 145.639C-79.9187 150.204 -76.4016 153.832 -71.977 153.832Z" fill="#FFD159"/>
<path d="M-58.7031 154.183C-54.165 154.183 -50.5345 150.438 -50.5345 145.756C-50.5345 141.075 -54.165 137.329 -58.7031 137.329C-63.2412 137.329 -66.8717 141.075 -66.8717 145.756C-66.8717 150.321 -63.2412 154.183 -58.7031 154.183Z" fill="#FFD159"/>
<path d="M-45.5424 154.183C-41.0043 154.183 -37.3738 150.438 -37.3738 145.756C-37.3738 141.075 -41.0043 137.329 -45.5424 137.329C-50.0805 137.329 -53.711 141.075 -53.711 145.756C-53.711 150.321 -50.0805 154.183 -45.5424 154.183Z" fill="#FFD159"/>
<path d="M-32.2684 154.183C-27.7303 154.183 -24.0999 150.438 -24.0999 145.756C-24.0999 141.075 -27.7303 137.329 -32.2684 137.329C-36.8065 137.329 -40.437 141.075 -40.437 145.756C-40.437 150.321 -36.8065 154.183 -32.2684 154.183Z" fill="#FFD159"/>
<path d="M-18.9943 154.183C-14.4562 154.183 -10.8257 150.438 -10.8257 145.756C-10.8257 141.075 -14.4562 137.329 -18.9943 137.329C-23.5324 137.329 -27.1629 141.075 -27.1629 145.756C-27.2764 150.321 -23.5324 154.183 -18.9943 154.183Z" fill="#FFD159"/>
<path d="M-5.83379 154.183C-1.29568 154.183 2.33481 150.438 2.33481 145.756C2.33481 141.075 -1.29568 137.329 -5.83379 137.329C-10.3719 137.329 -14.0024 141.075 -14.0024 145.756C-14.0024 150.321 -10.3719 154.183 -5.83379 154.183Z" fill="#FFD159"/>
<path d="M7.44014 154.184C11.9783 154.184 15.6087 150.438 15.6087 145.757C15.6087 141.075 11.9783 137.33 7.44014 137.33C2.90202 137.33 -0.728439 141.075 -0.728439 145.757C-0.728439 150.321 2.90202 154.184 7.44014 154.184Z" fill="#FFD159"/>
<path d="M20.7141 153.13C24.6849 153.13 27.8616 149.853 27.8616 145.756C27.8616 141.66 24.6849 138.383 20.7141 138.383C16.7433 138.383 13.5666 141.66 13.5666 145.756C13.4531 149.853 16.7433 153.13 20.7141 153.13Z" fill="#FFD159"/>
<path d="M33.8745 151.96C37.1646 151.96 39.8875 149.151 39.8875 145.756C39.8875 142.362 37.1646 139.553 33.8745 139.553C30.5844 139.553 27.8616 142.362 27.8616 145.756C27.8616 149.151 30.5844 151.96 33.8745 151.96Z" fill="#FFD159"/>
<path d="M47.1487 150.789C49.8715 150.789 52.0271 148.565 52.0271 145.757C52.0271 142.948 49.8715 140.724 47.1487 140.724C44.4258 140.724 42.2702 142.948 42.2702 145.757C42.2702 148.565 44.4258 150.789 47.1487 150.789Z" fill="#FFD159"/>
<path d="M60.4228 149.619C62.465 149.619 64.1668 147.863 64.1668 145.757C64.1668 143.65 62.465 141.894 60.4228 141.894C58.3807 141.894 56.6789 143.65 56.6789 145.757C56.6789 147.863 58.2672 149.619 60.4228 149.619Z" fill="#FFD159"/>
<path d="M73.5833 148.449C75.0582 148.449 76.1927 147.278 76.1927 145.757C76.1927 144.235 75.0582 143.065 73.5833 143.065C72.1084 143.065 70.9739 144.235 70.9739 145.757C70.9739 147.161 72.1084 148.449 73.5833 148.449Z" fill="#FFD159"/>
<path d="M86.857 147.278C87.6511 147.278 88.3319 146.576 88.3319 145.756C88.3319 144.937 87.6511 144.235 86.857 144.235C86.0628 144.235 85.3821 144.937 85.3821 145.756C85.3821 146.576 86.0628 147.278 86.857 147.278Z" fill="#FFD159"/>
<path d="M100.131 146.108C100.358 146.108 100.472 145.991 100.472 145.757C100.472 145.522 100.358 145.405 100.131 145.405C99.9042 145.405 99.7908 145.522 99.7908 145.757C99.7908 145.874 99.9042 146.108 100.131 146.108Z" fill="#FFD159"/>
<path d="M-151.394 160.386C-150.826 160.386 -150.486 159.918 -150.486 159.45C-150.486 158.865 -150.94 158.514 -151.394 158.514C-151.961 158.514 -152.301 158.982 -152.301 159.45C-152.301 159.918 -151.961 160.386 -151.394 160.386Z" fill="#FFD159"/>
<path d="M-138.12 161.557C-136.985 161.557 -136.078 160.62 -136.078 159.45C-136.078 158.28 -136.985 157.343 -138.12 157.343C-139.254 157.343 -140.162 158.28 -140.162 159.45C-140.275 160.503 -139.254 161.557 -138.12 161.557Z" fill="#FFD159"/>
<path d="M-124.959 162.61C-123.144 162.61 -121.782 161.089 -121.782 159.333C-121.782 157.461 -123.257 156.056 -124.959 156.056C-126.774 156.056 -128.136 157.578 -128.136 159.333C-128.136 161.206 -126.661 162.61 -124.959 162.61Z" fill="#FFD159"/>
<path d="M-111.685 163.781C-109.303 163.781 -107.374 161.791 -107.374 159.333C-107.374 156.875 -109.303 154.886 -111.685 154.886C-114.068 154.886 -115.997 156.875 -115.997 159.333C-115.997 161.791 -114.068 163.781 -111.685 163.781Z" fill="#FFD159"/>
<path d="M-98.4112 164.951C-95.4614 164.951 -92.9654 162.493 -92.9654 159.333C-92.9654 156.29 -95.3479 153.715 -98.4112 153.715C-101.361 153.715 -103.857 156.173 -103.857 159.333C-103.857 162.493 -101.474 164.951 -98.4112 164.951Z" fill="#FFD159"/>
<path d="M-85.2509 166.004C-81.7338 166.004 -78.7841 162.961 -78.7841 159.333C-78.7841 155.705 -81.7337 152.662 -85.2507 152.662C-88.7677 152.662 -91.7177 155.588 -91.7177 159.333C-91.7177 163.078 -88.7679 166.004 -85.2509 166.004Z" fill="#FFD159"/>
<path d="M-71.9769 167.058C-67.8926 167.058 -64.489 163.546 -64.489 159.333C-64.489 155.12 -67.8926 151.608 -71.9769 151.608C-76.0612 151.608 -79.4648 155.12 -79.4648 159.333C-79.4648 163.664 -76.0612 167.058 -71.9769 167.058Z" fill="#FFD159"/>
<path d="M-58.7031 167.76C-54.165 167.76 -50.5345 164.014 -50.5345 159.333C-50.5345 154.651 -54.165 150.906 -58.7031 150.906C-63.2412 150.906 -66.8717 154.651 -66.8717 159.333C-66.8717 164.014 -63.2412 167.76 -58.7031 167.76Z" fill="#FFD159"/>
<path d="M-45.5419 167.76C-41.0038 167.76 -37.3733 164.015 -37.3733 159.333C-37.3733 154.652 -41.0038 150.906 -45.5419 150.906C-50.08 150.906 -53.7105 154.652 -53.7105 159.333C-53.7105 164.015 -50.08 167.76 -45.5419 167.76Z" fill="#FFD159"/>
<path d="M-32.268 167.76C-27.7299 167.76 -24.0994 164.015 -24.0994 159.333C-24.0994 154.652 -27.7299 150.906 -32.268 150.906C-36.8061 150.906 -40.4366 154.652 -40.4366 159.333C-40.4366 164.015 -36.8061 167.76 -32.268 167.76Z" fill="#FFD159"/>
<path d="M-18.9943 167.76C-14.4562 167.76 -10.8257 164.015 -10.8257 159.333C-10.8257 154.652 -14.4562 150.906 -18.9943 150.906C-23.5324 150.906 -27.1629 154.652 -27.1629 159.333C-27.2764 164.015 -23.5324 167.76 -18.9943 167.76Z" fill="#FFD159"/>
<path d="M-5.83379 167.76C-1.29568 167.76 2.33481 164.014 2.33481 159.333C2.33481 154.651 -1.29568 150.906 -5.83379 150.906C-10.3719 150.906 -14.0024 154.651 -14.0024 159.333C-14.0024 164.014 -10.3719 167.76 -5.83379 167.76Z" fill="#FFD159"/>
<path d="M7.43997 167.409C11.7512 167.409 15.2682 163.78 15.2682 159.333C15.2682 154.885 11.7512 151.257 7.43997 151.257C3.12877 151.257 -0.38826 154.885 -0.38826 159.333C-0.38826 163.78 3.12877 167.409 7.43997 167.409Z" fill="#FFD159"/>
<path d="M20.7143 166.356C24.4583 166.356 27.5215 163.196 27.5215 159.333C27.5215 155.471 24.4583 152.311 20.7143 152.311C16.9704 152.311 13.9072 155.471 13.9072 159.333C13.9072 163.196 16.8569 166.356 20.7143 166.356Z" fill="#FFD159"/>
<path d="M33.8748 165.302C37.0515 165.302 39.5474 162.61 39.5474 159.333C39.5474 156.056 36.938 153.481 33.8748 153.481C30.6981 153.481 28.2022 156.173 28.2022 159.333C28.2022 162.61 30.6981 165.302 33.8748 165.302Z" fill="#FFD159"/>
<path d="M47.1482 164.132C49.7577 164.132 51.7998 162.025 51.7998 159.333C51.7998 156.641 49.7577 154.534 47.1482 154.534C44.5388 154.534 42.4967 156.641 42.4967 159.333C42.4967 162.025 44.5388 164.132 47.1482 164.132Z" fill="#FFD159"/>
<path d="M60.423 163.079C62.3517 163.079 63.94 161.44 63.94 159.45C63.94 157.461 62.3517 155.822 60.423 155.822C58.4943 155.822 56.9059 157.461 56.9059 159.45C56.7925 161.44 58.3808 163.079 60.423 163.079Z" fill="#FFD159"/>
<path d="M73.5831 161.908C74.9445 161.908 76.079 160.738 76.079 159.333C76.079 157.929 74.9445 156.758 73.5831 156.758C72.2216 156.758 71.0871 157.929 71.0871 159.333C71.2006 160.738 72.2216 161.908 73.5831 161.908Z" fill="#FFD159"/>
<path d="M86.8572 160.738C87.5379 160.738 88.2186 160.153 88.2186 159.333C88.2186 158.631 87.6514 157.929 86.8572 157.929C86.1765 157.929 85.4958 158.514 85.4958 159.333C85.4958 160.153 86.063 160.738 86.8572 160.738Z" fill="#FFD159"/>
<path d="M100.131 159.567C100.244 159.567 100.358 159.45 100.358 159.333C100.358 159.216 100.244 159.099 100.131 159.099C100.017 159.099 99.904 159.216 99.904 159.333C99.904 159.45 100.017 159.567 100.131 159.567Z" fill="#FFD159"/>
<path d="M-151.394 173.729C-151.054 173.729 -150.713 173.378 -150.713 173.027C-150.713 172.676 -151.054 172.324 -151.394 172.324C-151.735 172.324 -152.075 172.676 -152.075 173.027C-152.075 173.378 -151.735 173.729 -151.394 173.729Z" fill="#FFD159"/>
<path d="M-138.12 174.782C-137.099 174.782 -136.305 173.963 -136.305 172.91C-136.305 171.856 -137.099 171.037 -138.12 171.037C-139.141 171.037 -139.935 171.856 -139.935 172.91C-139.935 174.08 -139.141 174.782 -138.12 174.782Z" fill="#FFD159"/>
<path d="M-124.959 175.953C-123.371 175.953 -122.123 174.665 -122.123 173.027C-122.123 171.388 -123.371 170.101 -124.959 170.101C-126.548 170.101 -127.796 171.388 -127.796 173.027C-127.796 174.665 -126.434 175.953 -124.959 175.953Z" fill="#FFD159"/>
<path d="M-111.685 177.006C-109.53 177.006 -107.828 175.251 -107.828 173.027C-107.828 170.803 -109.53 169.047 -111.685 169.047C-113.841 169.047 -115.543 170.803 -115.543 173.027C-115.543 175.251 -113.841 177.006 -111.685 177.006Z" fill="#FFD159"/>
<path d="M-98.4114 178.06C-95.6885 178.06 -93.5329 175.836 -93.5329 173.027C-93.5329 170.218 -95.6885 167.994 -98.4114 167.994C-101.134 167.994 -103.29 170.218 -103.29 173.027C-103.403 175.836 -101.134 178.06 -98.4114 178.06Z" fill="#FFD159"/>
<path d="M-85.2505 179.113C-81.9604 179.113 -79.351 176.421 -79.351 173.027C-79.351 169.633 -81.9604 166.941 -85.2505 166.941C-88.5407 166.941 -91.1501 169.633 -91.1501 173.027C-91.1501 176.421 -88.4272 179.113 -85.2505 179.113Z" fill="#FFD159"/>
<path d="M-71.9763 180.049C-68.2324 180.049 -65.1691 176.889 -65.1691 173.027C-65.1691 169.165 -68.2324 166.005 -71.9763 166.005C-75.7202 166.005 -78.7835 169.165 -78.7835 173.027C-78.7835 176.889 -75.7202 180.049 -71.9763 180.049Z" fill="#FFD159"/>
<path d="M-58.7027 180.869C-54.505 180.869 -51.1014 177.357 -51.1014 173.027C-51.1014 168.696 -54.505 165.185 -58.7027 165.185C-62.9005 165.185 -66.3041 168.696 -66.3041 173.027C-66.3041 177.357 -62.9005 180.869 -58.7027 180.869Z" fill="#FFD159"/>
<path d="M-45.5424 181.454C-41.0043 181.454 -37.3738 177.708 -37.3738 173.027C-37.3738 168.345 -41.0043 164.6 -45.5424 164.6C-50.0805 164.6 -53.711 168.345 -53.711 173.027C-53.711 177.708 -50.0805 181.454 -45.5424 181.454Z" fill="#FFD159"/>
<path d="M-32.2684 181.454C-27.7303 181.454 -24.0999 177.708 -24.0999 173.027C-24.0999 168.345 -27.7303 164.6 -32.2684 164.6C-36.8065 164.6 -40.437 168.345 -40.437 173.027C-40.437 177.708 -36.8065 181.454 -32.2684 181.454Z" fill="#FFD159"/>
<path d="M-18.9943 181.454C-14.4562 181.454 -10.8257 177.709 -10.8257 173.027C-10.8257 168.345 -14.4562 164.6 -18.9943 164.6C-23.5324 164.6 -27.1629 168.345 -27.1629 173.027C-27.2764 177.709 -23.5324 181.454 -18.9943 181.454Z" fill="#FFD159"/>
<path d="M-5.8335 181.103C-1.52229 181.103 1.99474 177.475 1.99474 173.027C1.99474 168.579 -1.52229 164.951 -5.8335 164.951C-10.1447 164.951 -13.6617 168.579 -13.6617 173.027C-13.6617 177.475 -10.1447 181.103 -5.8335 181.103Z" fill="#FFD159"/>
<path d="M7.44035 180.283C11.4112 180.283 14.4744 177.006 14.4744 173.027C14.4744 169.047 11.2978 165.77 7.44035 165.77C3.58296 165.77 0.406296 169.047 0.406296 173.027C0.406296 177.006 3.46951 180.283 7.44035 180.283Z" fill="#FFD159"/>
<path d="M20.7142 179.464C24.1178 179.464 26.9541 176.655 26.9541 173.027C26.9541 169.516 24.2313 166.59 20.7142 166.59C17.3107 166.59 14.4744 169.399 14.4744 173.027C14.4744 176.538 17.1972 179.464 20.7142 179.464Z" fill="#FFD159"/>
<path d="M33.8744 178.411C36.8242 178.411 39.0932 175.953 39.0932 173.027C39.0932 169.984 36.7108 167.643 33.8744 167.643C30.9247 167.643 28.6556 170.101 28.6556 173.027C28.6556 175.953 31.0381 178.411 33.8744 178.411Z" fill="#FFD159"/>
<path d="M47.1488 177.357C49.5313 177.357 51.3465 175.368 51.3465 173.027C51.3465 170.569 49.4178 168.696 47.1488 168.696C44.8797 168.696 42.951 170.686 42.951 173.027C42.951 175.368 44.7663 177.357 47.1488 177.357Z" fill="#FFD159"/>
<path d="M60.4228 176.304C62.238 176.304 63.5994 174.783 63.5994 173.027C63.5994 171.154 62.1246 169.75 60.4228 169.75C58.6075 169.75 57.2461 171.271 57.2461 173.027C57.1326 174.783 58.6075 176.304 60.4228 176.304Z" fill="#FFD159"/>
<path d="M73.5834 175.251C74.7179 175.251 75.739 174.314 75.739 173.027C75.739 171.856 74.8314 170.803 73.5834 170.803C72.4489 170.803 71.4278 171.739 71.4278 173.027C71.4278 174.197 72.4489 175.251 73.5834 175.251Z" fill="#FFD159"/>
<path d="M86.8566 174.08C87.4239 174.08 87.8777 173.612 87.8777 173.027C87.8777 172.441 87.4239 171.973 86.8566 171.973C86.2893 171.973 85.8355 172.441 85.8355 173.027C85.8355 173.612 86.2893 174.08 86.8566 174.08Z" fill="#FFD159"/>
<path d="M-151.394 186.955C-151.28 186.955 -151.167 186.838 -151.167 186.721C-151.167 186.603 -151.28 186.486 -151.394 186.486C-151.507 186.486 -151.621 186.603 -151.621 186.721C-151.621 186.838 -151.507 186.955 -151.394 186.955Z" fill="#FFD159"/>
<path d="M-138.12 188.008C-137.439 188.008 -136.758 187.423 -136.758 186.603C-136.758 185.901 -137.326 185.199 -138.12 185.199C-138.801 185.199 -139.481 185.784 -139.481 186.603C-139.481 187.423 -138.914 188.008 -138.12 188.008Z" fill="#FFD159"/>
<path d="M-124.959 189.061C-123.711 189.061 -122.577 188.008 -122.577 186.604C-122.577 185.199 -123.598 184.146 -124.959 184.146C-126.207 184.146 -127.342 185.199 -127.342 186.604C-127.342 188.008 -126.207 189.061 -124.959 189.061Z" fill="#FFD159"/>
<path d="M-111.685 190.115C-109.87 190.115 -108.395 188.593 -108.395 186.721C-108.395 184.848 -109.87 183.326 -111.685 183.326C-113.501 183.326 -114.976 184.848 -114.976 186.721C-114.976 188.593 -113.501 190.115 -111.685 190.115Z" fill="#FFD159"/>
<path d="M-98.4109 191.051C-96.0284 191.051 -94.0997 189.061 -94.0997 186.604C-94.0997 184.146 -96.0284 182.156 -98.4109 182.156C-100.793 182.156 -102.722 184.146 -102.722 186.604C-102.722 189.178 -100.793 191.051 -98.4109 191.051Z" fill="#FFD159"/>
<path d="M-85.2509 191.987C-82.4146 191.987 -80.0321 189.646 -80.0321 186.603C-80.0321 183.677 -82.3011 181.219 -85.2509 181.219C-88.0872 181.219 -90.4697 183.56 -90.4697 186.603C-90.3562 189.646 -88.0872 191.987 -85.2509 191.987Z" fill="#FFD159"/>
<path d="M-71.9768 192.807C-68.6867 192.807 -65.9639 189.998 -65.9639 186.603C-65.9639 183.209 -68.6867 180.4 -71.9768 180.4C-75.267 180.4 -77.9898 183.209 -77.9898 186.603C-77.9898 190.115 -75.267 192.807 -71.9768 192.807Z" fill="#FFD159"/>
<path d="M-58.7026 193.509C-55.0721 193.509 -52.0089 190.466 -52.0089 186.604C-52.0089 182.858 -54.9586 179.698 -58.7026 179.698C-62.3331 179.698 -65.3963 182.741 -65.3963 186.604C-65.3963 190.466 -62.4465 193.509 -58.7026 193.509Z" fill="#FFD159"/>
<path d="M-45.5422 193.977C-41.5713 193.977 -38.5081 190.7 -38.5081 186.72C-38.5081 182.624 -41.6848 179.464 -45.5422 179.464C-49.3996 179.464 -52.5762 182.741 -52.5762 186.72C-52.5762 190.7 -49.3996 193.977 -45.5422 193.977Z" fill="#FFD159"/>
<path d="M-32.2683 194.211C-28.184 194.211 -25.0073 190.817 -25.0073 186.721C-25.0073 182.507 -28.2974 179.23 -32.2683 179.23C-36.3526 179.23 -39.5292 182.624 -39.5292 186.721C-39.5292 190.817 -36.3526 194.211 -32.2683 194.211Z" fill="#FFD159"/>
<path d="M-18.994 194.094C-15.0232 194.094 -11.8465 190.817 -11.8465 186.721C-11.8465 182.624 -15.0232 179.347 -18.994 179.347C-22.9649 179.347 -26.1415 182.624 -26.1415 186.721C-26.255 190.817 -22.9649 194.094 -18.994 194.094Z" fill="#FFD159"/>
<path d="M-5.83353 193.626C-2.08958 193.626 0.973633 190.466 0.973633 186.604C0.973633 182.741 -2.08958 179.581 -5.83353 179.581C-9.57747 179.581 -12.6407 182.741 -12.6407 186.604C-12.6407 190.583 -9.57747 193.626 -5.83353 193.626Z" fill="#FFD159"/>
<path d="M7.44029 193.041C10.8439 193.041 13.6802 190.232 13.6802 186.604C13.6802 183.092 10.9573 180.166 7.44029 180.166C4.0367 180.166 1.20039 182.975 1.20039 186.604C1.20039 190.232 4.0367 193.041 7.44029 193.041Z" fill="#FFD159"/>
<path d="M20.7142 192.221C23.6639 192.221 26.1599 189.764 26.1599 186.604C26.1599 183.56 23.7774 180.986 20.7142 180.986C17.7644 180.986 15.2684 183.443 15.2684 186.604C15.2684 189.764 17.6509 192.221 20.7142 192.221Z" fill="#FFD159"/>
<path d="M33.875 191.402C36.371 191.402 38.4131 189.295 38.4131 186.721C38.4131 184.146 36.371 182.039 33.875 182.039C31.3791 182.039 29.3369 184.146 29.3369 186.721C29.3369 189.295 31.3791 191.402 33.875 191.402Z" fill="#FFD159"/>
<path d="M47.1487 190.466C49.1908 190.466 50.7792 188.71 50.7792 186.721C50.7792 184.614 49.1908 182.975 47.1487 182.975C45.1065 182.975 43.5182 184.614 43.5182 186.721C43.5182 188.71 45.1065 190.466 47.1487 190.466Z" fill="#FFD159"/>
<path d="M60.4228 189.413C61.8977 189.413 63.1456 188.125 63.1456 186.604C63.1456 185.082 61.8977 183.795 60.4228 183.795C58.9479 183.795 57.6999 185.082 57.6999 186.604C57.6999 188.242 58.8344 189.413 60.4228 189.413Z" fill="#FFD159"/>
<path d="M73.5835 188.359C74.4911 188.359 75.2852 187.54 75.2852 186.604C75.2852 185.667 74.4911 184.848 73.5835 184.848C72.6758 184.848 71.8817 185.667 71.8817 186.604C71.8817 187.657 72.6758 188.359 73.5835 188.359Z" fill="#FFD159"/>
<path d="M86.8574 187.306C87.1977 187.306 87.5381 186.955 87.5381 186.604C87.5381 186.252 87.3112 186.018 86.8574 186.018C86.517 186.018 86.1767 186.252 86.1767 186.604C86.1767 187.072 86.517 187.306 86.8574 187.306Z" fill="#FFD159"/>
<path d="M-138.12 201.116C-137.666 201.116 -137.326 200.765 -137.326 200.297C-137.326 199.829 -137.666 199.478 -138.12 199.478C-138.574 199.478 -138.914 199.829 -138.914 200.297C-138.914 200.765 -138.574 201.116 -138.12 201.116Z" fill="#FFD159"/>
<path d="M-124.959 202.17C-123.938 202.17 -123.144 201.351 -123.144 200.297C-123.144 199.244 -123.938 198.542 -124.959 198.542C-125.98 198.542 -126.774 199.361 -126.774 200.297C-126.661 201.351 -125.866 202.17 -124.959 202.17Z" fill="#FFD159"/>
<path d="M-111.685 203.106C-110.21 203.106 -108.962 201.819 -108.962 200.297C-108.962 198.776 -110.21 197.488 -111.685 197.488C-113.16 197.488 -114.408 198.776 -114.408 200.297C-114.408 201.819 -113.16 203.106 -111.685 203.106Z" fill="#FFD159"/>
<path d="M-98.4114 204.043C-96.4827 204.043 -94.8943 202.404 -94.8943 200.414C-94.8943 198.425 -96.4827 196.786 -98.4114 196.786C-100.34 196.786 -101.928 198.425 -101.928 200.414C-102.042 202.404 -100.454 204.043 -98.4114 204.043Z" fill="#FFD159"/>
<path d="M-85.2507 204.745C-82.8682 204.745 -80.9395 202.755 -80.9395 200.297C-80.9395 197.839 -82.8682 195.85 -85.2507 195.85C-87.6332 195.85 -89.5619 197.839 -89.5619 200.297C-89.5619 202.755 -87.6332 204.745 -85.2507 204.745Z" fill="#FFD159"/>
<path d="M-71.9764 205.564C-69.2536 205.564 -66.9845 203.223 -66.9845 200.414C-66.9845 197.605 -69.2536 195.265 -71.9764 195.265C-74.6993 195.265 -76.9683 197.605 -76.9683 200.414C-76.9683 203.223 -74.6993 205.564 -71.9764 205.564Z" fill="#FFD159"/>
<path d="M-58.7026 206.149C-55.6394 206.149 -53.03 203.574 -53.03 200.297C-53.03 197.137 -55.5259 194.562 -58.7026 194.562C-61.7658 194.562 -64.3752 197.137 -64.3752 200.297C-64.3752 203.574 -61.8793 206.149 -58.7026 206.149Z" fill="#FFD159"/>
<path d="M-45.5422 206.5C-42.2521 206.5 -39.5292 203.691 -39.5292 200.297C-39.5292 196.903 -42.2521 194.094 -45.5422 194.094C-48.8323 194.094 -51.5552 196.903 -51.5552 200.297C-51.4417 203.691 -48.8323 206.5 -45.5422 206.5Z" fill="#FFD159"/>
<path d="M-32.2685 206.617C-28.8649 206.617 -26.1421 203.808 -26.1421 200.297C-26.1421 196.786 -28.8649 193.977 -32.2685 193.977C-35.6721 193.977 -38.395 196.786 -38.395 200.297C-38.395 203.808 -35.6721 206.617 -32.2685 206.617Z" fill="#FFD159"/>
<path d="M-18.9946 206.617C-15.7045 206.617 -12.9816 203.808 -12.9816 200.414C-12.9816 197.02 -15.7045 194.211 -18.9946 194.211C-22.2848 194.211 -25.0076 197.02 -25.0076 200.414C-25.1211 203.808 -22.3982 206.617 -18.9946 206.617Z" fill="#FFD159"/>
<path d="M-5.83379 206.266C-2.6571 206.266 -0.047699 203.574 -0.047699 200.414C-0.047699 197.137 -2.6571 194.562 -5.83379 194.562C-9.01047 194.562 -11.5064 197.254 -11.5064 200.414C-11.5064 203.574 -9.01047 206.266 -5.83379 206.266Z" fill="#FFD159"/>
<path d="M7.43979 205.681C10.3896 205.681 12.6586 203.223 12.6586 200.297C12.6586 197.254 10.2761 194.913 7.43979 194.913C4.49002 194.913 2.22096 197.371 2.22096 200.297C2.22096 203.34 4.49002 205.681 7.43979 205.681Z" fill="#FFD159"/>
<path d="M20.7141 205.096C23.2101 205.096 25.2523 202.989 25.2523 200.414C25.2523 197.839 23.2101 195.733 20.7141 195.733C18.2182 195.733 16.176 197.839 16.176 200.414C16.0626 202.989 18.1047 205.096 20.7141 205.096Z" fill="#FFD159"/>
<path d="M33.8747 204.276C36.0303 204.276 37.7321 202.521 37.7321 200.297C37.7321 198.073 36.0303 196.318 33.8747 196.318C31.7191 196.318 30.0173 198.073 30.0173 200.297C30.1308 202.521 31.8326 204.276 33.8747 204.276Z" fill="#FFD159"/>
<path d="M47.1488 203.34C48.7371 203.34 50.0986 201.936 50.0986 200.297C50.0986 198.659 48.7371 197.254 47.1488 197.254C45.5605 197.254 44.199 198.659 44.199 200.297C44.199 202.053 45.447 203.34 47.1488 203.34Z" fill="#FFD159"/>
<path d="M60.4227 202.521C61.5572 202.521 62.4648 201.585 62.4648 200.414C62.4648 199.244 61.5572 198.307 60.4227 198.307C59.2881 198.307 58.3805 199.244 58.3805 200.414C58.2671 201.468 59.1747 202.521 60.4227 202.521Z" fill="#FFD159"/>
<path d="M73.5833 201.468C74.1506 201.468 74.7178 200.999 74.7178 200.297C74.7178 199.712 74.2641 199.127 73.5833 199.127C73.0161 199.127 72.4488 199.595 72.4488 200.297C72.5623 200.999 73.0161 201.468 73.5833 201.468Z" fill="#FFD159"/>
<path d="M86.8569 200.415C86.9702 200.18 86.9702 200.18 86.8569 200.18C86.7435 200.18 86.7435 200.297 86.8569 200.415C86.7435 200.415 86.7435 200.415 86.8569 200.415Z" fill="#FFD159"/>
<path d="M-138.12 214.107C-138.007 214.107 -138.007 213.991 -138.007 213.991C-138.007 213.874 -138.12 213.874 -138.12 213.874C-138.233 213.874 -138.233 213.991 -138.233 213.991C-138.346 214.107 -138.233 214.107 -138.12 214.107Z" fill="#FFD159"/>
<path d="M-124.959 215.044C-124.392 215.044 -123.938 214.576 -123.938 213.991C-123.938 213.405 -124.392 212.937 -124.959 212.937C-125.527 212.937 -125.98 213.405 -125.98 213.991C-125.98 214.576 -125.527 215.044 -124.959 215.044Z" fill="#FFD159"/>
<path d="M-111.686 215.98C-110.665 215.98 -109.757 215.044 -109.757 213.991C-109.757 212.937 -110.665 212.001 -111.686 212.001C-112.707 212.001 -113.614 212.937 -113.614 213.991C-113.614 215.044 -112.707 215.98 -111.686 215.98Z" fill="#FFD159"/>
<path d="M-98.4111 216.8C-96.9362 216.8 -95.6882 215.512 -95.6882 213.991C-95.6882 212.469 -96.9362 211.182 -98.4111 211.182C-99.886 211.182 -101.134 212.469 -101.134 213.991C-101.134 215.512 -99.9994 216.8 -98.4111 216.8Z" fill="#FFD159"/>
<path d="M-85.251 217.502C-83.3223 217.502 -81.8474 215.863 -81.8474 213.991C-81.8474 212.001 -83.4357 210.48 -85.251 210.48C-87.1797 210.48 -88.6546 212.118 -88.6546 213.991C-88.6546 215.98 -87.0662 217.502 -85.251 217.502Z" fill="#FFD159"/>
<path d="M-71.9767 218.204C-69.7077 218.204 -67.8924 216.332 -67.8924 213.991C-67.8924 211.65 -69.7077 209.777 -71.9767 209.777C-74.2458 209.777 -76.061 211.65 -76.061 213.991C-76.061 216.332 -74.2458 218.204 -71.9767 218.204Z" fill="#FFD159"/>
<path d="M-58.7029 218.672C-56.2069 218.672 -54.1647 216.566 -54.1647 213.991C-54.1647 211.416 -56.2069 209.309 -58.7029 209.309C-61.1988 209.309 -63.241 211.416 -63.241 213.991C-63.241 216.566 -61.1988 218.672 -58.7029 218.672Z" fill="#FFD159"/>
<path d="M-45.5424 219.024C-42.8196 219.024 -40.664 216.8 -40.664 213.991C-40.664 211.182 -42.8196 208.958 -45.5424 208.958C-48.2653 208.958 -50.4209 211.182 -50.4209 213.991C-50.3075 216.683 -48.1519 219.024 -45.5424 219.024Z" fill="#FFD159"/>
<path d="M-32.2683 219.141C-29.5454 219.141 -27.2764 216.8 -27.2764 213.991C-27.2764 211.182 -29.5454 208.841 -32.2683 208.841C-34.9912 208.841 -37.2602 211.182 -37.2602 213.991C-37.2602 216.8 -34.9912 219.141 -32.2683 219.141Z" fill="#FFD159"/>
<path d="M-18.9942 219.024C-16.2714 219.024 -14.1158 216.8 -14.1158 213.991C-14.1158 211.182 -16.2714 208.958 -18.9942 208.958C-21.7171 208.958 -23.8727 211.182 -23.8727 213.991C-23.9861 216.8 -21.7171 219.024 -18.9942 219.024Z" fill="#FFD159"/>
<path d="M-5.83382 218.79C-3.22441 218.79 -1.18225 216.683 -1.18225 213.991C-1.18225 211.299 -3.22441 209.192 -5.83382 209.192C-8.44324 209.192 -10.4854 211.299 -10.4854 213.991C-10.4854 216.683 -8.32977 218.79 -5.83382 218.79Z" fill="#FFD159"/>
<path d="M7.4402 218.321C9.82271 218.321 11.638 216.332 11.638 213.991C11.638 211.533 9.70926 209.66 7.4402 209.66C5.05769 209.66 3.24246 211.65 3.24246 213.991C3.24246 216.332 5.05769 218.321 7.4402 218.321Z" fill="#FFD159"/>
<path d="M20.7142 217.736C22.7564 217.736 24.3447 216.098 24.3447 213.991C24.3447 211.884 22.7564 210.246 20.7142 210.246C18.6721 210.246 17.0838 211.884 17.0838 213.991C16.9703 216.098 18.6721 217.736 20.7142 217.736Z" fill="#FFD159"/>
<path d="M33.8749 217.034C35.4632 217.034 36.8246 215.63 36.8246 213.991C36.8246 212.352 35.4632 210.948 33.8749 210.948C32.2865 210.948 30.9251 212.352 30.9251 213.991C30.9251 215.63 32.2865 217.034 33.8749 217.034Z" fill="#FFD159"/>
<path d="M47.1485 216.215C48.3964 216.215 49.304 215.161 49.304 213.991C49.304 212.703 48.283 211.767 47.1485 211.767C45.9005 211.767 44.9929 212.82 44.9929 213.991C44.8794 215.278 45.9005 216.215 47.1485 216.215Z" fill="#FFD159"/>
<path d="M60.4226 215.395C61.2168 215.395 61.784 214.81 61.784 213.991C61.784 213.171 61.2168 212.586 60.4226 212.586C59.6284 212.586 59.0612 213.171 59.0612 213.991C59.0612 214.693 59.6284 215.395 60.4226 215.395Z" fill="#FFD159"/>
<path d="M73.583 214.459C73.8099 214.459 74.0368 214.225 74.0368 213.991C74.0368 213.757 73.8099 213.523 73.583 213.523C73.3561 213.523 73.1292 213.757 73.1292 213.991C73.1292 214.225 73.3561 214.459 73.583 214.459Z" fill="#FFD159"/>
<path d="M-124.959 227.919C-124.846 227.919 -124.619 227.802 -124.619 227.568C-124.619 227.451 -124.732 227.216 -124.959 227.216C-125.073 227.216 -125.3 227.333 -125.3 227.568C-125.186 227.802 -125.073 227.919 -124.959 227.919Z" fill="#FFD159"/>
<path d="M-111.685 228.738C-111.117 228.738 -110.55 228.27 -110.55 227.568C-110.55 226.982 -111.004 226.397 -111.685 226.397C-112.252 226.397 -112.819 226.865 -112.819 227.568C-112.819 228.27 -112.252 228.738 -111.685 228.738Z" fill="#FFD159"/>
<path d="M-98.4112 229.557C-97.3901 229.557 -96.5959 228.738 -96.5959 227.567C-96.5959 226.514 -97.3901 225.695 -98.4112 225.695C-99.4323 225.695 -100.34 226.514 -100.34 227.567C-100.34 228.738 -99.4323 229.557 -98.4112 229.557Z" fill="#FFD159"/>
<path d="M-85.2508 230.26C-83.8894 230.26 -82.7549 229.089 -82.7549 227.685C-82.7549 226.28 -83.8894 225.11 -85.2508 225.11C-86.6123 225.11 -87.7468 226.28 -87.7468 227.685C-87.7468 229.089 -86.6123 230.26 -85.2508 230.26Z" fill="#FFD159"/>
<path d="M-71.9768 230.728C-70.275 230.728 -68.9135 229.323 -68.9135 227.568C-68.9135 225.812 -70.275 224.408 -71.9768 224.408C-73.6785 224.408 -75.04 225.812 -75.04 227.568C-75.04 229.323 -73.6785 230.728 -71.9768 230.728Z" fill="#FFD159"/>
<path d="M-58.7035 231.196C-56.7748 231.196 -55.2999 229.557 -55.2999 227.684C-55.2999 225.695 -56.8882 224.173 -58.7035 224.173C-60.6322 224.173 -62.107 225.812 -62.107 227.684C-62.2205 229.557 -60.6322 231.196 -58.7035 231.196Z" fill="#FFD159"/>
<path d="M-45.5422 231.43C-43.5001 231.43 -41.7983 229.674 -41.7983 227.567C-41.7983 225.461 -43.5001 223.705 -45.5422 223.705C-47.5844 223.705 -49.2862 225.461 -49.2862 227.567C-49.1727 229.791 -47.5844 231.43 -45.5422 231.43Z" fill="#FFD159"/>
<path d="M-32.2681 231.547C-30.1125 231.547 -28.4107 229.791 -28.4107 227.568C-28.4107 225.344 -30.1125 223.588 -32.2681 223.588C-34.4237 223.588 -36.1255 225.344 -36.1255 227.568C-36.1255 229.791 -34.4237 231.547 -32.2681 231.547Z" fill="#FFD159"/>
<path d="M-18.9941 231.547C-16.952 231.547 -15.2502 229.791 -15.2502 227.685C-15.2502 225.578 -16.952 223.822 -18.9941 223.822C-21.0363 223.822 -22.7381 225.578 -22.7381 227.685C-22.8515 229.791 -21.1497 231.547 -18.9941 231.547Z" fill="#FFD159"/>
<path d="M-5.83406 231.313C-3.90536 231.313 -2.31705 229.674 -2.31705 227.684C-2.31705 225.695 -3.90536 224.056 -5.83406 224.056C-7.76276 224.056 -9.3511 225.695 -9.3511 227.684C-9.3511 229.674 -7.76276 231.313 -5.83406 231.313Z" fill="#FFD159"/>
<path d="M7.44064 230.962C9.25587 230.962 10.6173 229.44 10.6173 227.685C10.6173 225.812 9.14243 224.408 7.44064 224.408C5.73885 224.408 4.26396 225.929 4.26396 227.685C4.26396 229.44 5.6254 230.962 7.44064 230.962Z" fill="#FFD159"/>
<path d="M20.7142 230.376C22.1891 230.376 23.4371 229.089 23.4371 227.567C23.4371 226.046 22.1891 224.758 20.7142 224.758C19.2393 224.758 17.9913 226.046 17.9913 227.567C17.9913 229.206 19.2393 230.376 20.7142 230.376Z" fill="#FFD159"/>
<path d="M33.8746 229.791C35.0091 229.791 35.9167 228.855 35.9167 227.685C35.9167 226.514 35.0091 225.578 33.8746 225.578C32.74 225.578 31.8324 226.514 31.8324 227.685C31.8324 228.855 32.74 229.791 33.8746 229.791Z" fill="#FFD159"/>
<path d="M47.1491 229.089C47.9433 229.089 48.5105 228.504 48.5105 227.685C48.5105 226.865 47.9433 226.28 47.1491 226.28C46.3549 226.28 45.7877 226.865 45.7877 227.685C45.7877 228.387 46.3549 229.089 47.1491 229.089Z" fill="#FFD159"/>
<path d="M60.4228 228.27C60.7631 228.27 60.99 228.036 60.99 227.685C60.99 227.334 60.7631 227.099 60.4228 227.099C60.0824 227.099 59.8555 227.334 59.8555 227.685C59.742 227.919 60.0824 228.27 60.4228 228.27Z" fill="#FFD159"/>
<path d="M-111.685 241.495C-111.572 241.495 -111.459 241.378 -111.459 241.261C-111.459 241.144 -111.572 241.027 -111.685 241.027C-111.799 241.027 -111.912 241.144 -111.912 241.261C-111.912 241.378 -111.799 241.495 -111.685 241.495Z" fill="#FFD159"/>
<path d="M-98.4117 242.197C-97.9579 242.197 -97.5041 241.729 -97.5041 241.261C-97.5041 240.793 -97.9579 240.325 -98.4117 240.325C-98.8655 240.325 -99.3193 240.793 -99.3193 241.261C-99.3193 241.846 -98.979 242.197 -98.4117 242.197Z" fill="#FFD159"/>
<path d="M-85.2504 242.783C-84.4562 242.783 -83.7755 242.081 -83.7755 241.261C-83.7755 240.442 -84.4562 239.74 -85.2504 239.74C-86.0446 239.74 -86.7253 240.442 -86.7253 241.261C-86.7253 242.198 -86.0446 242.783 -85.2504 242.783Z" fill="#FFD159"/>
<path d="M-71.977 243.368C-70.8425 243.368 -70.0483 242.432 -70.0483 241.378C-70.0483 240.208 -70.9559 239.271 -71.977 239.271C-73.1115 239.271 -73.9057 240.208 -73.9057 241.378C-73.9057 242.432 -73.1115 243.368 -71.977 243.368Z" fill="#FFD159"/>
<path d="M-58.7027 243.719C-57.4547 243.719 -56.3202 242.666 -56.3202 241.261C-56.3202 239.857 -57.3412 238.803 -58.7027 238.803C-59.9507 238.803 -61.0852 239.857 -61.0852 241.261C-61.0852 242.666 -60.0641 243.719 -58.7027 243.719Z" fill="#FFD159"/>
<path d="M-45.542 243.953C-44.0671 243.953 -42.9326 242.783 -42.9326 241.261C-42.9326 239.74 -44.0671 238.569 -45.542 238.569C-47.0169 238.569 -48.1514 239.74 -48.1514 241.261C-48.1514 242.783 -46.9034 243.953 -45.542 243.953Z" fill="#FFD159"/>
<path d="M-32.2688 244.07C-30.7939 244.07 -29.5459 242.783 -29.5459 241.261C-29.5459 239.74 -30.7939 238.452 -32.2688 238.452C-33.7437 238.452 -34.9917 239.74 -34.9917 241.261C-34.9917 242.783 -33.7437 244.07 -32.2688 244.07Z" fill="#FFD159"/>
<path d="M-18.9944 244.07C-17.5196 244.07 -16.385 242.9 -16.385 241.378C-16.385 239.857 -17.5196 238.686 -18.9944 238.686C-20.4693 238.686 -21.6039 239.857 -21.6039 241.378C-21.7173 242.783 -20.4693 244.07 -18.9944 244.07Z" fill="#FFD159"/>
<path d="M-5.83365 243.836C-4.47221 243.836 -3.33769 242.666 -3.33769 241.261C-3.33769 239.857 -4.47221 238.686 -5.83365 238.686C-7.19508 238.686 -8.32961 239.857 -8.32961 241.261C-8.21614 242.666 -7.19508 243.836 -5.83365 243.836Z" fill="#FFD159"/>
<path d="M7.4406 243.485C8.57512 243.485 9.59619 242.549 9.59619 241.261C9.59619 240.091 8.68857 239.038 7.4406 239.038C6.30606 239.038 5.285 239.974 5.285 241.261C5.285 242.549 6.30606 243.485 7.4406 243.485Z" fill="#FFD159"/>
<path d="M20.7142 243.017C21.6218 243.017 22.416 242.198 22.416 241.261C22.416 240.325 21.6218 239.506 20.7142 239.506C19.8065 239.506 19.0124 240.325 19.0124 241.261C19.0124 242.198 19.6931 243.017 20.7142 243.017Z" fill="#FFD159"/>
<path d="M33.8743 242.432C34.4415 242.432 35.0088 241.963 35.0088 241.261C35.0088 240.676 34.555 240.091 33.8743 240.091C33.307 240.091 32.7397 240.559 32.7397 241.261C32.8532 241.963 33.307 242.432 33.8743 242.432Z" fill="#FFD159"/>
<path d="M47.1488 241.73C47.3757 241.73 47.6026 241.496 47.6026 241.261C47.6026 241.027 47.3757 240.793 47.1488 240.793C46.9219 240.793 46.695 241.027 46.695 241.261C46.695 241.496 46.9219 241.73 47.1488 241.73Z" fill="#FFD159"/>
<path d="M-85.2509 255.423C-85.024 255.423 -84.7971 255.189 -84.7971 254.955C-84.7971 254.721 -85.024 254.487 -85.2509 254.487C-85.4778 254.487 -85.7047 254.721 -85.7047 254.955C-85.7047 255.189 -85.4778 255.423 -85.2509 255.423Z" fill="#FFD159"/>
<path d="M-71.977 255.891C-71.5232 255.891 -71.0694 255.423 -71.0694 254.955C-71.0694 254.487 -71.5232 254.019 -71.977 254.019C-72.4308 254.019 -72.8847 254.487 -72.8847 254.955C-72.8847 255.423 -72.5443 255.891 -71.977 255.891Z" fill="#FFD159"/>
<path d="M-58.7029 256.242C-58.0222 256.242 -57.4549 255.657 -57.4549 254.955C-57.4549 254.253 -58.0222 253.667 -58.7029 253.667C-59.3836 253.667 -59.9509 254.253 -59.9509 254.955C-59.9509 255.657 -59.3836 256.242 -58.7029 256.242Z" fill="#FFD159"/>
<path d="M-45.5423 256.477C-44.7481 256.477 -44.0674 255.774 -44.0674 254.955C-44.0674 254.136 -44.7481 253.434 -45.5423 253.434C-46.3364 253.434 -47.0172 254.136 -47.0172 254.955C-47.0172 255.774 -46.3364 256.477 -45.5423 256.477Z" fill="#FFD159"/>
<path d="M-32.2681 256.477C-31.3605 256.477 -30.6798 255.774 -30.6798 254.838C-30.6798 254.019 -31.3605 253.199 -32.2681 253.199C-33.0623 253.199 -33.8565 253.902 -33.8565 254.838C-33.8565 255.774 -33.1757 256.477 -32.2681 256.477Z" fill="#FFD159"/>
<path d="M-18.9942 256.477C-18.2 256.477 -17.5193 255.774 -17.5193 254.955C-17.5193 254.136 -18.2 253.434 -18.9942 253.434C-19.7884 253.434 -20.4691 254.136 -20.4691 254.955C-20.5825 255.774 -19.9018 256.477 -18.9942 256.477Z" fill="#FFD159"/>
<path d="M-5.83389 256.359C-5.15317 256.359 -4.47246 255.774 -4.47246 254.955C-4.47246 254.253 -5.03972 253.55 -5.83389 253.55C-6.5146 253.55 -7.19533 254.136 -7.19533 254.955C-7.08186 255.657 -6.5146 256.359 -5.83389 256.359Z" fill="#FFD159"/>
<path d="M7.43988 256.008C8.00714 256.008 8.46094 255.54 8.46094 254.955C8.46094 254.37 8.00714 253.902 7.43988 253.902C6.87262 253.902 6.41881 254.37 6.41881 254.955C6.41881 255.54 6.87262 256.008 7.43988 256.008Z" fill="#FFD159"/>
<path d="M20.7142 255.54C21.0545 255.54 21.3949 255.306 21.3949 254.838C21.3949 254.487 21.0545 254.253 20.7142 254.253C20.3738 254.253 20.1469 254.604 20.1469 254.838C20.0335 255.306 20.3738 255.54 20.7142 255.54Z" fill="#FFD159"/>
<path d="M33.8746 255.073C33.9879 255.073 33.9879 255.073 33.9879 254.955C33.9879 254.838 33.9879 254.838 33.8746 254.838C33.7612 254.838 33.7612 254.838 33.7612 254.955L33.8746 255.073Z" fill="#FFD159"/>
<path d="M-58.7028 268.649C-58.5895 268.649 -58.5895 268.649 -58.5895 268.532C-58.5895 268.532 -58.5895 268.415 -58.7028 268.415C-58.8162 268.415 -58.8162 268.415 -58.8162 268.532C-58.8162 268.649 -58.8162 268.649 -58.7028 268.649Z" fill="#FFD159"/>
<path d="M-45.5421 268.883C-45.4286 268.883 -45.2017 268.766 -45.2017 268.532C-45.2017 268.415 -45.3151 268.181 -45.5421 268.181C-45.6555 268.181 -45.8824 268.298 -45.8824 268.532C-45.769 268.766 -45.6555 268.883 -45.5421 268.883Z" fill="#FFD159"/>
<path d="M-32.2679 269C-32.041 269 -31.8141 268.766 -31.8141 268.532C-31.8141 268.298 -32.041 268.064 -32.2679 268.064C-32.4948 268.064 -32.7217 268.298 -32.7217 268.532C-32.7217 268.883 -32.4948 269 -32.2679 269Z" fill="#FFD159"/>
<path d="M-18.9946 268.883C-18.7677 268.883 -18.6543 268.766 -18.6543 268.532C-18.6543 268.298 -18.7677 268.181 -18.9946 268.181C-19.2215 268.181 -19.335 268.298 -19.335 268.532C-19.335 268.766 -19.2215 268.883 -18.9946 268.883Z" fill="#FFD159"/>
<path d="M-5.83368 268.766C-5.72021 268.766 -5.60678 268.649 -5.60678 268.532C-5.60678 268.415 -5.72021 268.298 -5.83368 268.298C-5.94713 268.298 -6.06058 268.415 -6.06058 268.532C-5.94713 268.649 -5.94713 268.766 -5.83368 268.766Z" fill="#FFD159"/>
</g>
<defs>
<filter id="filter0_d_0_2289" x="0" y="0" width="236.943" height="98" filterUnits="userSpaceOnUse" color-interpolation-filters="sRGB">
<feFlood flood-opacity="0" result="BackgroundImageFix"/>
<feColorMatrix in="SourceAlpha" type="matrix" values="0 0 0 0 0 0 0 0 0 0 0 0 0 0 0 0 0 0 127 0" result="hardAlpha"/>
<feOffset dx="3" dy="3"/>
<feGaussianBlur stdDeviation="7.5"/>
<feComposite in2="hardAlpha" operator="out"/>
<feColorMatrix type="matrix" values="0 0 0 0 0.100706 0 0 0 0 0.0392157 0 0 0 0 0.478431 0 0 0 0.5 0"/>
<feBlend mode="normal" in2="BackgroundImageFix" result="effect1_dropShadow_0_2289"/>
<feBlend mode="normal" in="SourceGraphic" in2="effect1_dropShadow_0_2289" result="shape"/>
</filter>
<linearGradient id="paint0_linear_0_2289" x1="115.472" y1="75.2214" x2="124.211" y2="7.45766" gradientUnits="userSpaceOnUse">
<stop stop-color="#FFEA2E"/>
<stop offset="1" stop-color="#FFE64D"/>
</linearGradient>
<linearGradient id="paint1_linear_0_2289" x1="10.1145" y1="91.15" x2="224.384" y2="26.4398" gradientUnits="userSpaceOnUse">
<stop offset="0.047679" stop-color="#FDFF8D"/>
<stop offset="1" stop-color="#FFFDC7"/>
</linearGradient>
<linearGradient id="paint2_linear_0_2289" x1="29.5831" y1="46.7966" x2="218.408" y2="46.7966" gradientUnits="userSpaceOnUse">
<stop stop-color="#12E2EF"/>
<stop offset="1" stop-color="#00FFE6"/>
</linearGradient>
<linearGradient id="paint3_linear_0_2289" x1="260.241" y1="-17.3433" x2="260.241" y2="70.2709" gradientUnits="userSpaceOnUse">
<stop stop-color="#FFD159"/>
<stop offset="1" stop-color="#FFE743"/>
</linearGradient>
</defs>
</svg>
