<svg width="86" height="105" viewBox="0 0 86 105" fill="none" xmlns="http://www.w3.org/2000/svg">
<path fill-rule="evenodd" clip-rule="evenodd" d="M19.8573 3.71719C19.8573 3.71719 74.345 34.4732 79.2155 42.2541C84.0841 50.0324 85.3414 58.0796 73.3946 65.6081C61.4493 73.1384 22.3801 104.593 11.7112 101.81C1.04235 99.0248 1.67038 90.0889 7.0548 78.4543C12.4412 66.818 17.9985 57.3468 14.0395 43.4218C10.0788 29.4953 5.11986 20.3819 3.5639 17.7295C2.00943 15.08 2.73471 -0.429508 19.8573 3.71719Z" fill="#FFE02C"/>
<path d="M54.855 49.7172C56.3231 51.236 56.3231 53.6255 54.855 55.1442L36.3442 74.2939C33.8647 76.8589 29.4839 75.1262 29.4839 71.5804V33.2811C29.4839 29.7353 33.8647 28.0026 36.3442 30.5676L54.855 49.7172Z" fill="white"/>
<path d="M9.34318 2.37066C11.9745 1.39151 15.2818 1.18866 19.3816 2.06229L20.2124 2.25085L20.4157 2.30093L20.5984 2.40405L19.8569 3.71704C20.5668 2.45948 20.5977 2.4061 20.5994 2.40405L20.6092 2.40896C20.6159 2.41274 20.6255 2.4192 20.6387 2.42663C20.665 2.44155 20.7048 2.46318 20.7565 2.49243C20.8603 2.55115 21.0144 2.63878 21.2151 2.75267C21.6165 2.98044 22.2055 3.31483 22.9563 3.74356C24.4581 4.60111 26.6087 5.83547 29.2041 7.3398C34.394 10.348 41.367 14.4415 48.4944 18.7796C55.6182 23.1156 62.9134 27.7056 68.7402 31.7063C71.6519 33.7055 74.2164 35.5706 76.2165 37.192C78.1643 38.771 79.7365 40.2434 80.4943 41.4541C82.9947 45.4489 84.7507 49.7858 84.1033 54.2413C83.4465 58.7606 80.3854 62.9842 74.1984 66.8832L74.1994 66.8841C71.2629 68.7353 66.6303 72.0771 61.0989 76.0574C55.5916 80.0204 49.2355 84.5849 42.9154 88.8289C36.6027 93.0679 30.2817 97.0167 24.8448 99.7355C22.1279 101.094 19.5879 102.167 17.3518 102.811C15.1567 103.443 13.0601 103.72 11.3299 103.269C8.47395 102.523 6.23843 101.331 4.6382 99.6677C3.02463 97.9901 2.15212 95.9315 1.86589 93.637C1.30661 89.1527 2.97592 83.6773 5.68604 77.8212V77.8202C11.1432 66.0311 16.3648 57.1162 12.5888 43.8346C8.67019 30.056 3.76871 21.0603 2.26263 18.4929C1.92376 17.9153 1.72918 17.1589 1.62234 16.41C1.51053 15.626 1.47624 14.7134 1.54083 13.7398C1.66956 11.8003 2.19735 9.50724 3.39984 7.42131C4.61462 5.31409 6.51953 3.4214 9.34318 2.37066Z" stroke="#FFDC00" stroke-width="3"/>
</svg>
