<svg width="86" height="105" viewBox="0 0 86 105" fill="none" xmlns="http://www.w3.org/2000/svg">
<path fill-rule="evenodd" clip-rule="evenodd" d="M65.8893 3.71719C65.8893 3.71719 11.4023 34.4732 6.53154 42.2541C1.66269 50.0324 0.405748 58.0796 12.3524 65.6081C24.2977 73.1384 63.3678 104.593 74.0362 101.81C84.7053 99.0248 84.0764 90.0889 78.6918 78.4543C73.3056 66.818 67.7478 57.3468 71.7083 43.4218C75.6694 29.4953 80.6276 20.3819 82.1829 17.7295C83.7373 15.08 83.0121 -0.429508 65.8893 3.71719Z" fill="#FFE02C"/>
<path d="M30.8963 54.6989C29.4282 53.1802 29.4282 50.7906 30.8963 49.2719L49.407 30.1223C51.8865 27.5572 56.2673 29.2899 56.2673 32.8358V71.135C56.2673 74.6808 51.8865 76.4135 49.407 73.8485L30.8963 54.6989Z" fill="white"/>
<path d="M65.5338 2.25085C70.0201 1.16438 73.5964 1.32636 76.4031 2.37066C79.2267 3.42137 81.1316 5.31417 82.3464 7.42131C83.5489 9.50724 84.0767 11.8003 84.2054 13.7398C84.27 14.7134 84.2367 15.626 84.1249 16.41C84.0181 17.1587 83.8223 17.9143 83.4836 18.4919C81.9781 21.0594 77.0784 30.0559 73.1594 43.8346C69.3819 57.1162 74.6032 66.031 80.0602 77.8202L80.0612 77.8212C82.7714 83.6771 84.4404 89.1528 83.8814 93.637C83.5952 95.9315 82.7226 97.9901 81.1091 99.6677C79.5088 101.331 77.2734 102.523 74.4174 103.269C72.6871 103.72 70.5906 103.443 68.3955 102.811C66.1594 102.167 63.6194 101.094 60.9025 99.7355C55.4655 97.0168 49.1446 93.0679 42.8319 88.8289C36.5117 84.5849 30.1557 80.0204 24.6483 76.0574C19.1169 72.0771 14.4844 68.7353 11.5479 66.8841C5.36098 62.9852 2.2998 58.7606 1.64296 54.2413C0.99558 49.7858 2.75241 45.4489 5.25296 41.4541L5.40419 41.2233C6.20851 40.0583 7.70471 38.6723 9.53075 37.192C11.5309 35.5706 14.0953 33.7055 17.0071 31.7063C22.8339 27.7056 30.1291 23.1156 37.2529 18.7796C44.3804 14.4414 51.3533 10.348 56.5432 7.3398C59.1385 5.83547 61.2892 4.60111 62.791 3.74356C63.5416 3.31491 64.1309 2.98039 64.5321 2.75267C64.7326 2.63888 64.8861 2.55111 64.9898 2.49243C65.0415 2.46314 65.0812 2.44157 65.1076 2.42663C65.1207 2.41921 65.1304 2.41275 65.1371 2.40896L65.1469 2.40405H65.1479L65.3305 2.30093L65.5338 2.25085Z" stroke="#FFDC00" stroke-width="3"/>
</svg>
